<svg width="137" height="123" viewBox="0 0 137 123" fill="none" xmlns="http://www.w3.org/2000/svg">
    <g filter="url(#filter0_d_470_5352)">
        <path d="M71.4875 42.7504L72.7448 43.5684L71.4875 42.7504ZM37.1242 76.0336L37.7157 77.4121L37.1242 76.0336ZM107.647 1.95347L107.267 0.502184L107.647 1.95347ZM21.0492 61.5232C20.3548 61.9749 20.158 62.9041 20.6097 63.5985C21.0614 64.293 21.9906 64.4897 22.685 64.038L21.0492 61.5232ZM19.564 67.471C19.8864 66.7079 19.5291 65.8279 18.7659 65.5055C18.0028 65.1831 17.1228 65.5404 16.8005 66.3036L19.564 67.471ZM16.4292 67.3843C16.2155 68.1847 16.6912 69.0068 17.4916 69.2205C18.292 69.4341 19.114 68.9585 19.3277 68.1581L16.4292 67.3843ZM20.06 72.3219C19.6118 71.6252 18.6836 71.4238 17.9869 71.8721C17.2903 72.3203 17.0889 73.2485 17.5371 73.9452L20.06 72.3219ZM18.1867 74.8376C18.7111 75.479 19.6561 75.5738 20.2975 75.0494C20.9388 74.525 21.0336 73.58 20.5092 72.9386L18.1867 74.8376ZM24.4347 75.6032C23.6562 75.32 22.7955 75.7216 22.5123 76.5001C22.2291 77.2786 22.6306 78.1393 23.4091 78.4225L24.4347 75.6032ZM24.4009 78.7432C25.1977 78.9698 26.0274 78.5076 26.2541 77.7108C26.4808 76.914 26.0186 76.0843 25.2217 75.8576L24.4009 78.7432ZM30.2435 76.2949C29.4179 76.3638 28.8045 77.0888 28.8733 77.9144C28.9422 78.7399 29.6673 79.3534 30.4928 79.2845L30.2435 76.2949ZM31.4945 79.1754C32.3156 79.0653 32.892 78.3104 32.7818 77.4894C32.6717 76.6683 31.9169 76.0919 31.0958 76.2021L31.4945 79.1754ZM36.1197 74.828C35.3526 75.1407 34.9843 76.0161 35.297 76.7833C35.6098 77.5504 36.4852 77.9187 37.2523 77.606L36.1197 74.828ZM38.1851 77.2071C38.9421 76.8707 39.2831 75.9842 38.9467 75.2272C38.6103 74.4701 37.7239 74.1292 36.9668 74.4656L38.1851 77.2071ZM42.0278 71.7788C41.3223 72.213 41.1024 73.137 41.5366 73.8425C41.9708 74.548 42.8947 74.7679 43.6003 74.3337L42.0278 71.7788ZM44.4622 73.7917C45.1593 73.3442 45.3616 72.4162 44.9141 71.7191C44.4665 71.022 43.5386 70.8196 42.8415 71.2672L44.4622 73.7917ZM47.5417 67.8969C46.8919 68.4109 46.7819 69.3542 47.2958 70.004C47.8098 70.6537 48.7531 70.7637 49.4029 70.2498L47.5417 67.8969ZM50.1909 69.6172C50.8332 69.0941 50.9299 68.1493 50.4067 67.5069C49.8836 66.8646 48.9387 66.7679 48.2964 67.2911L50.1909 69.6172ZM52.663 63.4424C52.0617 64.0123 52.0364 64.9617 52.6063 65.5629C53.1762 66.1642 54.1256 66.1895 54.7269 65.6196L52.663 63.4424ZM55.4528 64.9237C56.0477 64.3471 56.0626 63.3975 55.486 62.8026C54.9094 62.2078 53.9598 62.1929 53.3649 62.7695L55.4528 64.9237ZM57.4341 58.5747C56.8748 59.1858 56.9168 60.1346 57.5279 60.6939C58.1391 61.2532 59.0879 61.2112 59.6472 60.6001L57.4341 58.5747ZM60.3202 59.858C60.874 59.2418 60.8234 58.2934 60.2072 57.7397C59.5911 57.1859 58.6427 57.2365 58.0889 57.8526L60.3202 59.858ZM61.8933 53.3956C61.371 54.0387 61.4689 54.9834 62.1119 55.5056C62.755 56.0279 63.6997 55.93 64.222 55.2869L61.8933 53.3956ZM64.8502 54.5073C65.3675 53.8602 65.2622 52.9163 64.6151 52.399C63.9681 51.8817 63.0242 51.987 62.5069 52.634L64.8502 54.5073ZM66.0678 47.9694C65.5796 48.6387 65.7264 49.577 66.3957 50.0652C67.065 50.5534 68.0033 50.4066 68.4915 49.7373L66.0678 47.9694ZM69.0765 48.9293C69.56 48.2565 69.4065 47.3193 68.7338 46.8358C68.061 46.3524 67.1238 46.5058 66.6403 47.1786L69.0765 48.9293ZM69.9656 42.3376C69.5113 43.0303 69.7046 43.9602 70.3973 44.4145C71.0901 44.8688 72.02 44.6754 72.4743 43.9827L69.9656 42.3376ZM73.0049 43.1698C73.4584 42.4766 73.2641 41.5469 72.5708 41.0934C71.8776 40.6399 70.9479 40.8342 70.4944 41.5274L73.0049 43.1698ZM73.8115 36.5957C73.3415 37.2779 73.5135 38.2119 74.1957 38.6819C74.8779 39.1519 75.8119 38.9799 76.2819 38.2977L73.8115 36.5957ZM76.8373 37.4944C77.3096 36.8138 77.1407 35.8792 76.46 35.4069C75.7794 34.9347 74.8448 35.1036 74.3725 35.7842L76.8373 37.4944ZM77.8024 30.9411C77.3172 31.6126 77.4683 32.5502 78.1398 33.0354C78.8113 33.5205 79.749 33.3694 80.2341 32.6979L77.8024 30.9411ZM80.8066 31.9081C81.2939 31.2381 81.1458 30.3 80.4758 29.8127C79.8058 29.3255 78.8677 29.4736 78.3804 30.1436L80.8066 31.9081ZM81.917 25.3792C81.4165 26.0394 81.546 26.9803 82.2062 27.4807C82.8664 27.9812 83.8073 27.8517 84.3077 27.1915L81.917 25.3792ZM84.9006 26.4124C85.4034 25.754 85.2772 24.8126 84.6188 24.3098C83.9604 23.807 83.0191 23.9332 82.5163 24.5915L84.9006 26.4124ZM86.1743 19.9139C85.656 20.5602 85.7598 21.5042 86.406 22.0225C87.0523 22.5408 87.9964 22.4371 88.5147 21.7908L86.1743 19.9139ZM89.1276 21.03C89.6488 20.3861 89.5493 19.4416 88.9054 18.9204C88.2615 18.3992 87.3169 18.4987 86.7957 19.1426L89.1276 21.03ZM90.6081 14.5757C90.0666 15.2027 90.136 16.1499 90.763 16.6913C91.3899 17.2328 92.3372 17.1634 92.8786 16.5364L90.6081 14.5757ZM93.5194 15.7992C94.0649 15.1757 94.0016 14.228 93.3781 13.6826C92.7546 13.1371 91.8069 13.2004 91.2615 13.8239L93.5194 15.7992ZM95.2977 9.41718C94.7222 10.0131 94.7388 10.9627 95.3347 11.5382C95.9306 12.1137 96.8802 12.0971 97.4557 11.5012L95.2977 9.41718ZM98.1314 10.8088C98.7133 10.2192 98.707 9.26943 98.1173 8.68755C97.5276 8.10568 96.5779 8.112 95.996 8.70167L98.1314 10.8088ZM100.419 4.58509C99.7833 5.11607 99.6983 6.06201 100.229 6.69789C100.76 7.33377 101.706 7.41879 102.342 6.88781L100.419 4.58509ZM103.08 6.28694C103.729 5.77219 103.838 4.8287 103.323 4.17961C102.808 3.53052 101.865 3.42161 101.216 3.93636L103.08 6.28694ZM106.712 0.668001C105.926 0.930507 105.502 1.78027 105.764 2.56601C106.027 3.35175 106.876 3.77591 107.662 3.51341L106.712 0.668001ZM108.403 3.31368C109.211 3.13416 109.722 2.33301 109.542 1.52427C109.362 0.715529 108.561 0.205447 107.753 0.384966L108.403 3.31368ZM113.722 0.593335C112.932 0.342248 112.089 0.778685 111.838 1.56814C111.587 2.3576 112.023 3.20113 112.812 3.45222L113.722 0.593335ZM113.496 3.70685C114.258 4.03326 115.14 3.68063 115.466 2.91923C115.793 2.15781 115.44 1.27596 114.678 0.949541L113.496 3.70685ZM119.314 4.8283C118.858 4.13653 117.928 3.94525 117.236 4.40105C116.544 4.85686 116.353 5.78714 116.809 6.47891L119.314 4.8283ZM117.179 7.105C117.564 7.8384 118.471 8.12065 119.204 7.7354C119.937 7.35016 120.22 6.44332 119.834 5.70992L117.179 7.105ZM120.803 11.7849C120.961 10.9717 120.431 10.1842 119.617 10.0258C118.804 9.86749 118.017 10.3983 117.858 11.2115L120.803 11.7849ZM117.685 11.8703C117.423 12.6562 117.848 13.5057 118.634 13.7677C119.42 14.0297 120.269 13.6049 120.531 12.819L117.685 11.8703ZM116.583 17.5737C117.293 17.1471 117.523 16.2256 117.097 15.5155C116.67 14.8053 115.748 14.5753 115.038 15.0019L116.583 17.5737ZM21.496 61.2432C21.3439 61.3351 21.1949 61.4284 21.0492 61.5232L22.685 64.038C22.8022 63.9618 22.9227 63.8862 23.0467 63.8114L21.496 61.2432ZM16.8005 66.3036C16.6501 66.6596 16.5264 67.0204 16.4292 67.3843L19.3277 68.1581C19.3886 67.93 19.4669 67.7007 19.564 67.471L16.8005 66.3036ZM17.5371 73.9452C17.7348 74.2524 17.9517 74.5502 18.1867 74.8376L20.5092 72.9386C20.3444 72.7371 20.1947 72.5312 20.06 72.3219L17.5371 73.9452ZM23.4091 78.4225C23.7315 78.5398 24.0622 78.6468 24.4009 78.7432L25.2217 75.8576C24.9513 75.7807 24.6889 75.6957 24.4347 75.6032L23.4091 78.4225ZM30.4928 79.2845C30.8232 79.257 31.1571 79.2207 31.4945 79.1754L31.0958 76.2021C30.8075 76.2407 30.5234 76.2715 30.2435 76.2949L30.4928 79.2845ZM37.2523 77.606C37.4064 77.5432 37.5608 77.4785 37.7157 77.4121L36.5326 74.6552C36.3945 74.7145 36.2568 74.7721 36.1197 74.828L37.2523 77.606ZM37.7157 77.4121C37.8724 77.3448 38.0289 77.2765 38.1851 77.2071L36.9668 74.4656C36.8222 74.5298 36.6775 74.5931 36.5326 74.6552L37.7157 77.4121ZM43.6003 74.3337C43.8887 74.1561 44.176 73.9754 44.4622 73.7917L42.8415 71.2672C42.571 71.4408 42.2997 71.6114 42.0278 71.7788L43.6003 74.3337ZM49.4029 70.2498C49.6667 70.0411 49.9294 69.8302 50.1909 69.6172L48.2964 67.2911C48.0458 67.4952 47.7942 67.6972 47.5417 67.8969L49.4029 70.2498ZM54.7269 65.6196C54.9702 65.389 55.2122 65.1569 55.4528 64.9237L53.3649 62.7695C53.1321 62.9951 52.8981 63.2195 52.663 63.4424L54.7269 65.6196ZM59.6472 60.6001C59.8731 60.3533 60.0974 60.1059 60.3202 59.858L58.0889 57.8526C57.8721 58.0939 57.6538 58.3346 57.4341 58.5747L59.6472 60.6001ZM64.222 55.2869C64.4332 55.0268 64.6427 54.7669 64.8502 54.5073L62.5069 52.634C62.3041 52.8877 62.0996 53.1416 61.8933 53.3956L64.222 55.2869ZM68.4915 49.7373C68.6889 49.4666 68.884 49.1972 69.0765 48.9293L66.6403 47.1786C66.4519 47.4408 66.261 47.7045 66.0678 47.9694L68.4915 49.7373ZM72.4743 43.9827C72.5653 43.8438 72.6555 43.7057 72.7448 43.5684L70.2302 41.9324C70.1428 42.0667 70.0546 42.2017 69.9656 42.3376L72.4743 43.9827ZM72.7448 43.5684C72.8301 43.4374 72.9168 43.3045 73.0049 43.1698L70.4944 41.5274C70.4049 41.6642 70.3169 41.7992 70.2302 41.9324L72.7448 43.5684ZM76.2819 38.2977C76.4644 38.0329 76.6495 37.7651 76.8373 37.4944L74.3725 35.7842C74.1829 36.0575 73.9958 36.3281 73.8115 36.5957L76.2819 38.2977ZM80.2341 32.6979C80.4235 32.4358 80.6143 32.1725 80.8066 31.9081L78.3804 30.1436C78.1863 30.4106 77.9935 30.6764 77.8024 30.9411L80.2341 32.6979ZM84.3077 27.1915C84.5045 26.9319 84.7021 26.6722 84.9006 26.4124L82.5163 24.5915C82.3157 24.8542 82.1159 25.1168 81.917 25.3792L84.3077 27.1915ZM88.5147 21.7908C88.7187 21.5364 88.923 21.2828 89.1276 21.03L86.7957 19.1426C86.5883 19.3989 86.3811 19.6561 86.1743 19.9139L88.5147 21.7908ZM92.8786 16.5364C93.0925 16.2888 93.3061 16.043 93.5194 15.7992L91.2615 13.8239C91.0438 14.0727 90.826 14.3233 90.6081 14.5757L92.8786 16.5364ZM97.4557 11.5012C97.682 11.2668 97.9073 11.0359 98.1314 10.8088L95.996 8.70167C95.7641 8.93674 95.5312 9.17531 95.2977 9.41718L97.4557 11.5012ZM102.342 6.88781C102.591 6.67962 102.837 6.47924 103.08 6.28694L101.216 3.93636C100.952 4.14531 100.687 4.3617 100.419 4.58509L102.342 6.88781ZM107.662 3.51341C107.788 3.47121 107.91 3.43511 108.026 3.40476L107.267 0.502184C107.082 0.550545 106.897 0.606046 106.712 0.668001L107.662 3.51341ZM108.026 3.40476C108.152 3.37166 108.278 3.34133 108.403 3.31368L107.753 0.384966C107.592 0.420719 107.43 0.459779 107.267 0.502184L108.026 3.40476ZM112.812 3.45222C113.047 3.52683 113.275 3.61199 113.496 3.70685L114.678 0.949541C114.369 0.816665 114.049 0.697554 113.722 0.593335L112.812 3.45222ZM116.809 6.47891C116.943 6.68279 117.067 6.89188 117.179 7.105L119.834 5.70992C119.676 5.40878 119.503 5.11443 119.314 4.8283L116.809 6.47891ZM117.858 11.2115C117.815 11.4343 117.757 11.6542 117.685 11.8703L120.531 12.819C120.645 12.4781 120.735 12.1328 120.803 11.7849L117.858 11.2115ZM115.038 15.0019C114.933 15.0651 114.824 15.1272 114.712 15.1879L116.137 17.8275C116.289 17.7454 116.438 17.6608 116.583 17.5737L115.038 15.0019Z" fill="#0AA98D"/>
    </g>
    <defs>
        <filter id="filter0_d_470_5352" x="0.37793" y="0.348999" width="136.453" height="121.941" filterUnits="userSpaceOnUse" color-interpolation-filters="sRGB">
            <feFlood flood-opacity="0" result="BackgroundImageFix"/>
            <feColorMatrix in="SourceAlpha" type="matrix" values="0 0 0 0 0 0 0 0 0 0 0 0 0 0 0 0 0 0 127 0" result="hardAlpha"/>
            <feOffset dy="27"/>
            <feGaussianBlur stdDeviation="8"/>
            <feComposite in2="hardAlpha" operator="out"/>
            <feColorMatrix type="matrix" values="0 0 0 0 0.433333 0 0 0 0 0.864 0 0 0 0 1 0 0 0 0.3 0"/>
            <feBlend mode="normal" in2="BackgroundImageFix" result="effect1_dropShadow_470_5352"/>
            <feBlend mode="normal" in="SourceGraphic" in2="effect1_dropShadow_470_5352" result="shape"/>
        </filter>
    </defs>
</svg>
