<?xml version="1.0" encoding="UTF-8"?>
<svg xmlns="http://www.w3.org/2000/svg" fill="none" viewBox="0 5.23 256.71 136.29">
    <g filter="url(#filter0_f_1_2)">
        <path fill-rule="evenodd" clip-rule="evenodd" d="M119.99 41.6263C118.315 35.3751 122.024 28.9491 128.275 27.2732C131.277 26.4683 134.476 26.8892 137.168 28.4431C139.86 29.9971 141.824 32.5568 142.629 35.5592C144.304 41.8106 140.594 48.2362 134.343 49.9116C128.092 51.5869 121.666 47.8775 119.99 41.6263ZM134.507 38.3978L139.759 36.9904C139.965 36.9434 140.129 36.7877 140.186 36.5844C140.243 36.3812 140.185 36.163 140.034 36.0156C139.882 35.8681 139.663 35.8151 139.461 35.8773L134.233 37.2781C133.542 35.7067 131.764 34.9243 130.138 35.4758C128.512 36.0274 127.578 37.73 127.985 39.3977C128.393 41.0655 130.007 42.1453 131.704 41.8851C133.401 41.625 134.618 40.111 134.507 38.3978Z" fill="#4FB9A5" fill-opacity="0.5" />
    </g>
    <path fill-rule="evenodd" clip-rule="evenodd" d="M57.8785 98.3428C57.8763 74.4974 77.2045 55.1648 101.05 55.1616C112.502 55.16 123.486 59.7083 131.585 67.8058C139.683 75.9033 144.233 86.8865 144.233 98.3388C144.233 122.184 124.903 141.515 101.058 141.516C77.2123 141.517 57.8806 122.188 57.8785 98.3428ZM112.621 100.696H132.656C133.434 100.725 134.165 100.327 134.562 99.658C134.959 98.9893 134.959 98.1569 134.562 97.4881C134.165 96.8194 133.434 96.4212 132.656 96.4502H112.715C111.753 90.1983 106.172 85.7185 99.8599 86.1311C93.5479 86.5436 88.5978 91.7115 88.4574 98.0354C88.3169 104.359 93.0327 109.742 99.3202 110.434C105.608 111.127 111.382 106.899 112.621 100.696Z" fill="#008C73" />
    <path fill-rule="evenodd" clip-rule="evenodd" d="M77.9102 10.9548C81.0701 5.48067 88.0693 3.60439 93.5436 6.76399C96.1728 8.28147 98.0914 10.7813 98.8773 13.7135C99.6632 16.6457 99.2519 19.77 97.7341 22.399C94.5738 27.8728 87.5744 29.7485 82.1004 26.5884C76.6263 23.4283 74.7504 16.429 77.9102 10.9548ZM90.1648 18.7503L94.7642 21.4058C94.9388 21.5154 95.1594 21.5209 95.3392 21.42C95.519 21.3192 95.6294 21.1281 95.6268 20.9219C95.6242 20.7158 95.5092 20.5275 95.3269 20.4311L90.7492 17.7881C91.3569 16.2254 90.6695 14.4575 89.1659 13.7156C87.6623 12.9737 85.841 13.504 84.9706 14.9371C84.1002 16.3702 84.4694 18.2308 85.821 19.223C87.1726 20.2153 89.0583 20.0101 90.1648 18.7503Z" fill="#008C73" />
    <path d="M26.9098 81.3574L28.1859 80.0813C28.891 79.3762 28.891 78.2339 28.1859 77.5288C27.4808 76.8237 26.3386 76.8237 25.6335 77.5288L24.3574 78.8049L23.0813 77.5288C22.3762 76.8237 21.2339 76.8237 20.5288 77.5288C19.8237 78.2339 19.8237 79.3762 20.5288 80.0813L21.8049 81.3574L20.5288 82.6335C19.8237 83.3386 19.8237 84.4808 20.5288 85.1859C21.2339 85.891 22.3761 85.8911 23.0813 85.1859L24.3574 83.9098L25.6335 85.1859C26.3386 85.891 27.4807 85.8911 28.1859 85.1859C28.891 84.4808 28.891 83.3386 28.1859 82.6335L26.9098 81.3574Z" fill="#0D6D5C" />
    <path d="M1.80504 45.6101C2.80194 45.6101 3.61008 44.8019 3.61008 43.805C3.61008 42.8081 2.80194 42 1.80504 42C0.808144 42 0 42.8081 0 43.805C0 44.8019 0.808144 45.6101 1.80504 45.6101Z" fill="#0D6D5C" />
    <path d="M254.91 68.3574L256.186 67.0813C256.891 66.3762 256.891 65.2339 256.186 64.5288C255.481 63.8237 254.339 63.8237 253.633 64.5288L252.357 65.8049L251.081 64.5288C250.376 63.8237 249.234 63.8237 248.529 64.5288C247.824 65.2339 247.824 66.3762 248.529 67.0813L249.805 68.3574L248.529 69.6335C247.824 70.3386 247.824 71.4808 248.529 72.1859C249.234 72.891 250.376 72.8911 251.081 72.1859L252.357 70.9098L253.633 72.1859C254.339 72.891 255.481 72.8911 256.186 72.1859C256.891 71.4808 256.891 70.3386 256.186 69.6335L254.91 68.3574Z" fill="#0D6D5C" />
    <defs>
        <filter id="filter0_f_1_2" x="112" y="19.2829" width="38.6186" height="38.6186" filterUnits="userSpaceOnUse" color-interpolation-filters="sRGB">
            <feFlood flood-opacity="0" result="BackgroundImageFix" />
            <feBlend mode="normal" in="SourceGraphic" in2="BackgroundImageFix" result="shape" />
            <feGaussianBlur stdDeviation="2" result="effect1_foregroundBlur_1_2" />
        </filter>
    </defs>
</svg>