<svg width="552" height="215" viewBox="0 0 552 215" fill="none" xmlns="http://www.w3.org/2000/svg">
    <rect width="552" height="215" fill="#EEEFF0"/>
    <path d="M169.1 115H171.96V100.8H169.1V115ZM175.014 115H177.634V100.28H175.014V115ZM180.483 115H183.103V100.28H180.483V115ZM189.251 115.18C190.351 115.18 191.391 114.72 192.131 113.82L192.171 113.84V115H194.811V105.22H192.171V109.98C192.171 111.86 191.151 112.82 190.011 112.82C188.791 112.82 188.251 112.22 188.251 110.44V105.22H185.651V111.12C185.651 114.1 187.131 115.18 189.251 115.18ZM200.495 115.18C203.055 115.18 204.275 113.86 204.275 112.14C204.275 110.2 203.035 109.74 200.915 108.96C199.955 108.6 199.475 108.32 199.475 107.92C199.475 107.4 199.995 107.2 200.395 107.2C201.115 107.2 201.995 107.52 202.735 108.24L204.015 106.3C202.895 105.44 201.795 105.08 200.455 105.08C198.435 105.08 196.915 106.22 196.915 107.98C196.915 109.88 198.315 110.64 199.935 111.18C201.195 111.6 201.695 111.82 201.695 112.24C201.695 112.72 201.275 113.04 200.515 113.04C199.435 113.04 198.595 112.66 197.795 111.92L196.535 113.74C197.595 114.66 198.935 115.18 200.495 115.18ZM209.261 115.18C210.581 115.18 211.221 114.9 211.841 114.56L211.181 112.46C210.741 112.68 210.261 112.8 209.941 112.8C209.321 112.8 209.101 112.4 209.101 111.54V107.4H211.741V105.22H209.101V101.76L206.481 102.04V105.22H205.321V107.4H206.481V111.92C206.481 114.12 207.581 115.18 209.261 115.18ZM213.566 115H216.186V110.48C216.186 109 217.046 107.92 218.666 107.92C218.826 107.92 219.086 107.92 219.366 107.94V105.08H219.166C218.026 105.08 216.966 105.64 216.226 106.64H216.186V105.22H213.566V115ZM224.912 115.18C226.192 115.18 227.172 114.7 227.852 113.82L227.892 113.84V115H230.392V105.22H227.772V106.34L227.732 106.36C227.032 105.52 225.992 105.08 224.852 105.08C222.232 105.08 220.252 107.18 220.252 110.14C220.252 113.16 222.232 115.18 224.912 115.18ZM225.412 112.82C223.932 112.82 222.912 111.72 222.912 110.16C222.912 108.48 223.992 107.42 225.412 107.42C226.812 107.42 227.892 108.58 227.892 110.16C227.892 111.76 226.752 112.82 225.412 112.82ZM235.902 115.18C237.222 115.18 237.862 114.9 238.482 114.56L237.822 112.46C237.382 112.68 236.902 112.8 236.582 112.8C235.962 112.8 235.742 112.4 235.742 111.54V107.4H238.382V105.22H235.742V101.76L233.122 102.04V105.22H231.962V107.4H233.122V111.92C233.122 114.12 234.222 115.18 235.902 115.18ZM241.666 103.9C242.606 103.9 243.326 103.18 243.326 102.28C243.326 101.4 242.606 100.68 241.666 100.68C240.706 100.68 240.006 101.4 240.006 102.28C240.006 103.18 240.706 103.9 241.666 103.9ZM240.326 115H242.946V105.22H240.326V115ZM250.335 115.18C253.375 115.18 255.515 113.1 255.515 110.12C255.515 107.12 253.375 105.08 250.335 105.08C247.215 105.08 245.135 107.2 245.135 110.12C245.135 113.04 247.215 115.18 250.335 115.18ZM250.335 112.82C248.835 112.82 247.795 111.64 247.795 110.12C247.795 108.58 248.815 107.42 250.335 107.42C251.775 107.42 252.855 108.52 252.855 110.12C252.855 111.72 251.735 112.82 250.335 112.82ZM257.57 115H260.19V110.1C260.19 108.34 261.07 107.42 262.39 107.42C263.61 107.42 264.27 108 264.27 109.86V115H266.89V109.2C266.89 106.2 265.43 105.08 263.35 105.08C262.13 105.08 261.01 105.56 260.23 106.48H260.19V105.22H257.57V115ZM268.487 117.66H270.387L271.807 112.44H269.107L268.487 117.66ZM286.188 115.14C288.368 115.14 290.488 114.42 291.788 113.38V107.26H285.868V109.68H289.048V111.76C288.148 112.32 287.208 112.58 286.188 112.58C283.528 112.58 281.888 110.54 281.888 107.92C281.888 105.02 283.728 103.28 286.068 103.28C287.628 103.28 288.848 103.88 289.728 104.76L291.708 103.04C290.248 101.42 288.088 100.62 286.068 100.62C281.628 100.62 278.948 103.76 278.948 107.92C278.948 112.48 282.088 115.14 286.188 115.14ZM294.288 115H296.908V110.48C296.908 109 297.768 107.92 299.388 107.92C299.548 107.92 299.808 107.92 300.088 107.94V105.08H299.888C298.748 105.08 297.688 105.64 296.948 106.64H296.908V105.22H294.288V115ZM305.634 115.18C306.914 115.18 307.894 114.7 308.574 113.82L308.614 113.84V115H311.114V105.22H308.494V106.34L308.454 106.36C307.754 105.52 306.714 105.08 305.574 105.08C302.954 105.08 300.974 107.18 300.974 110.14C300.974 113.16 302.954 115.18 305.634 115.18ZM306.134 112.82C304.654 112.82 303.634 111.72 303.634 110.16C303.634 108.48 304.714 107.42 306.134 107.42C307.534 107.42 308.614 108.58 308.614 110.16C308.614 111.76 307.474 112.82 306.134 112.82ZM313.605 118.96H316.225V113.92L316.265 113.9C316.945 114.72 317.905 115.18 319.125 115.18C321.845 115.18 323.825 113.16 323.825 110.14C323.825 107.18 321.845 105.08 319.205 105.08C318.005 105.08 316.965 105.52 316.265 106.34H316.225V105.22H313.605V118.96ZM318.665 112.82C317.225 112.82 316.105 111.76 316.105 110.16C316.105 108.58 317.145 107.42 318.645 107.42C320.045 107.42 321.165 108.48 321.165 110.16C321.165 111.72 320.125 112.82 318.665 112.82ZM325.89 115H328.51V110.06C328.51 108.3 329.39 107.42 330.79 107.42C332.03 107.42 332.69 108.02 332.69 109.8V115H335.31V109.14C335.31 106.14 333.81 105.08 331.73 105.08C330.45 105.08 329.33 105.52 328.53 106.4H328.51V100.28H325.89V115ZM336.905 117.66H338.805L340.225 112.44H337.525L336.905 117.66ZM356.806 110.02C356.806 107.16 354.886 105.08 352.126 105.08C349.226 105.08 347.166 107.12 347.166 110.1C347.166 113.16 349.286 115.18 352.286 115.18C354.466 115.18 355.726 114.38 356.546 113.32L354.846 111.74C354.326 112.38 353.566 112.84 352.466 112.84C351.146 112.84 350.206 112.14 349.886 110.96H356.746C356.766 110.8 356.806 110.34 356.806 110.02ZM352.106 107.36C353.246 107.36 353.946 108.04 354.206 109.08H349.906C350.206 107.96 351.046 107.36 352.106 107.36ZM361.859 115.18C363.179 115.18 363.819 114.9 364.439 114.56L363.779 112.46C363.339 112.68 362.859 112.8 362.539 112.8C361.919 112.8 361.699 112.4 361.699 111.54V107.4H364.339V105.22H361.699V101.76L359.079 102.04V105.22H357.919V107.4H359.079V111.92C359.079 114.12 360.179 115.18 361.859 115.18ZM370.234 115.18C372.314 115.18 373.654 114.44 374.494 113.4L372.794 111.76C372.274 112.4 371.494 112.82 370.494 112.82C368.934 112.82 367.854 111.74 367.854 110.12C367.854 108.52 368.914 107.42 370.494 107.42C371.414 107.42 372.214 107.82 372.734 108.46L374.454 106.84C373.434 105.64 371.834 105.08 370.314 105.08C367.294 105.08 365.194 107.12 365.194 110.14C365.194 113.14 367.314 115.18 370.234 115.18Z" fill="#B2BBC0"/>
</svg>