<svg width="180" height="199" viewBox="0 0 180 199" fill="none" xmlns="http://www.w3.org/2000/svg">
    <path d="M37.5918 111.185L88.9463 104.175L141.277 113.159L88.9851 121.788L37.5918 111.185Z" fill="#1D3D47"/>
    <path d="M90 104.647L74.4634 78L25 84.049L36.3787 99.3061L66.2829 103.364L71.0802 107L90 104.647Z" fill="#C29368"/>
    <path d="M90 104.215L105.298 78L154 83.9516L142.636 98.8317L113.38 103.084L108.229 107L90 104.215Z" fill="#C29368"/>
    <ellipse cx="97.7426" cy="80.2476" rx="19.2748" ry="14.9546" fill="white"/>
    <g filter="url(#filter0_d_470_5184)">
        <circle cx="90.1684" cy="88.5837" r="41.8041" fill="#1D3D47"/>
    </g>
    <path fill-rule="evenodd" clip-rule="evenodd" d="M46.7549 89.0597C46.7527 65.2143 66.0809 45.8817 89.9263 45.8785C101.379 45.8769 112.362 50.4252 120.461 58.5227C128.56 66.6202 133.109 77.6034 133.109 89.0557C133.109 112.901 113.779 132.232 89.9341 132.233C66.0887 132.234 46.7571 112.905 46.7549 89.0597ZM101.497 91.4129H121.533C122.31 91.4419 123.041 91.0437 123.438 90.3749C123.836 89.7062 123.836 88.8738 123.438 88.205C123.041 87.5363 122.31 87.1381 121.533 87.1671H101.591C100.629 80.9152 95.0484 76.4355 88.7363 76.848C82.4243 77.2605 77.4742 82.4284 77.3338 88.7523C77.1933 95.0763 81.9091 100.459 88.1966 101.151C94.4841 101.843 100.258 97.6159 101.497 91.4129Z" fill="white"/>
    <g filter="url(#filter1_d_470_5184)">
        <circle cx="79.6845" cy="120.132" r="9.55562" fill="white"/>
    </g>
    <path fill-rule="evenodd" clip-rule="evenodd" d="M69.8174 120.294C69.8169 114.874 74.2101 110.479 79.63 110.479C82.2331 110.478 84.7296 111.512 86.5704 113.353C88.4112 115.193 89.4453 117.69 89.4453 120.293C89.4453 125.713 85.0517 130.106 79.6318 130.107C74.2119 130.107 69.8179 125.714 69.8174 120.294ZM82.2598 120.829H86.8139C86.9906 120.835 87.1567 120.745 87.247 120.593C87.3373 120.441 87.3373 120.251 87.247 120.099C87.1567 119.947 86.9906 119.857 86.8139 119.863H82.2813C82.0625 118.442 80.7941 117.424 79.3594 117.518C77.9247 117.612 76.7996 118.786 76.7677 120.224C76.7357 121.661 77.8076 122.885 79.2367 123.042C80.6658 123.199 81.9782 122.238 82.2598 120.829Z" fill="#FEFEFE"/>
    <g filter="url(#filter2_d_470_5184)">
        <circle cx="90.3193" cy="124.452" r="9.55562" fill="white"/>
    </g>
    <path fill-rule="evenodd" clip-rule="evenodd" d="M80.4512 124.614C80.4507 119.194 84.8439 114.8 90.2638 114.799C92.8669 114.799 95.3634 115.832 97.2042 117.673C99.045 119.513 100.079 122.01 100.079 124.613C100.079 130.033 95.6855 134.427 90.2656 134.427C84.8457 134.427 80.4517 130.034 80.4512 124.614ZM92.8936 125.149H97.4477C97.6243 125.155 97.7905 125.065 97.8808 124.913C97.9711 124.761 97.9711 124.572 97.8808 124.42C97.7905 124.268 97.6243 124.177 97.4477 124.184H92.915C92.6963 122.763 91.4279 121.744 89.9932 121.838C88.5585 121.932 87.4334 123.107 87.4015 124.544C87.3695 125.981 88.4414 127.205 89.8705 127.362C91.2996 127.52 92.612 126.559 92.8936 125.149Z" fill="#FEFEFE"/>
    <g filter="url(#filter3_d_470_5184)">
        <circle cx="100.954" cy="120.132" r="9.55562" fill="white"/>
    </g>
    <path fill-rule="evenodd" clip-rule="evenodd" d="M91.0859 120.294C91.0854 114.874 95.4786 110.479 100.899 110.479C103.502 110.478 105.998 111.512 107.839 113.353C109.68 115.193 110.714 117.69 110.714 120.293C110.714 125.713 106.32 130.106 100.9 130.107C95.4804 130.107 91.0864 125.714 91.0859 120.294ZM103.528 120.829H108.082C108.259 120.835 108.425 120.745 108.516 120.593C108.606 120.441 108.606 120.251 108.516 120.099C108.425 119.947 108.259 119.857 108.082 119.863H103.55C103.331 118.442 102.063 117.424 100.628 117.518C99.1933 117.612 98.0681 118.786 98.0362 120.224C98.0043 121.661 99.0762 122.885 100.505 123.042C101.934 123.199 103.247 122.238 103.528 120.829Z" fill="#FEFEFE"/>
    <g filter="url(#filter4_d_470_5184)">
        <circle cx="118.566" cy="108.5" r="9.55562" fill="white"/>
    </g>
    <path fill-rule="evenodd" clip-rule="evenodd" d="M108.699 108.662C108.699 103.242 113.092 98.8482 118.512 98.8474C121.115 98.8471 123.611 99.8809 125.452 101.721C127.293 103.562 128.327 106.058 128.327 108.661C128.327 114.081 123.934 118.475 118.514 118.475C113.094 118.476 108.7 114.082 108.699 108.662ZM121.142 109.197H125.696C125.872 109.204 126.039 109.113 126.129 108.961C126.219 108.809 126.219 108.62 126.129 108.468C126.039 108.316 125.872 108.226 125.696 108.232H121.163C120.944 106.811 119.676 105.793 118.241 105.887C116.807 105.98 115.681 107.155 115.649 108.592C115.618 110.03 116.689 111.253 118.119 111.411C119.548 111.568 120.86 110.607 121.142 109.197Z" fill="#FEFEFE"/>
    <g filter="url(#filter5_d_470_5184)">
        <circle cx="62.7353" cy="109.165" r="9.55562" fill="white"/>
    </g>
    <path fill-rule="evenodd" clip-rule="evenodd" d="M52.8682 109.327C52.8677 103.907 57.2609 99.5128 62.6808 99.512C65.2839 99.5117 67.7804 100.545 69.6212 102.386C71.462 104.227 72.4961 106.723 72.4961 109.326C72.4961 114.746 68.1025 119.14 62.6826 119.14C57.2626 119.14 52.8687 114.747 52.8682 109.327ZM65.3106 109.862H69.8647C70.0413 109.868 70.2075 109.778 70.2978 109.626C70.3881 109.474 70.3881 109.285 70.2978 109.133C70.2075 108.981 70.0413 108.89 69.8647 108.897H65.332C65.1133 107.476 63.8449 106.458 62.4102 106.551C60.9755 106.645 59.8504 107.82 59.8184 109.257C59.7865 110.694 60.8584 111.918 62.2875 112.075C63.7166 112.233 65.029 111.272 65.3106 109.862Z" fill="#FEFEFE"/>
    <path d="M89.6006 121.954L114.957 102.846L166.8 95.2023L141.3 113.148L89.6006 121.954Z" fill="#C29368"/>
    <path d="M89.7002 158.344V121.918L141.3 113.148V145.4L89.7002 158.344Z" fill="#E8BB87"/>
    <path d="M89.7436 158.287V121.861L38.1436 113.091V145.343L89.7436 158.287Z" fill="#F4E5AE"/>
    <path d="M89.7671 121.954L64.8427 102.736L13 95.0926L38 113L89.7671 121.954Z" fill="#E8BB87"/>
    <g filter="url(#filter6_d_470_5184)">
        <path d="M91.297 141.33L92.0174 142.646L91.297 141.33ZM45.2732 154.385L45.1418 155.879L45.2732 154.385ZM142.459 122.507L142.812 121.049L142.459 122.507ZM37.9808 133.994C37.1553 134.063 36.5421 134.789 36.6114 135.614C36.6806 136.44 37.406 137.053 38.2315 136.984L37.9808 133.994ZM33.8573 138.531C34.5025 138.011 34.6043 137.067 34.0846 136.421C33.565 135.776 32.6207 135.674 31.9755 136.194L33.8573 138.531ZM31.1369 136.97C30.5699 137.574 30.5997 138.524 31.2037 139.091C31.8076 139.658 32.7569 139.628 33.3239 139.024L31.1369 136.97ZM31.9983 143.038C31.9332 142.213 31.2109 141.596 30.385 141.661C29.5592 141.726 28.9424 142.448 29.0076 143.274L31.9983 143.038ZM29.1574 144.368C29.3158 145.181 30.1034 145.712 30.9165 145.553C31.7296 145.395 32.2604 144.607 32.102 143.794L29.1574 144.368ZM34.2988 148C33.7471 147.382 32.7988 147.328 32.1809 147.88C31.5629 148.431 31.5092 149.38 32.061 149.998L34.2988 148ZM32.7829 150.749C33.3775 151.326 34.3271 151.312 34.9039 150.717C35.4808 150.123 35.4663 149.173 34.8717 148.596L32.7829 150.749ZM39.0883 151.358C38.3285 151.028 37.445 151.376 37.1149 152.136C36.7848 152.896 37.1332 153.78 37.893 154.11L39.0883 151.358ZM38.827 154.488C39.6024 154.779 40.4674 154.387 40.759 153.612C41.0506 152.836 40.6585 151.971 39.8831 151.68L38.827 154.488ZM44.959 152.847C44.1352 152.76 43.3964 153.356 43.3088 154.18C43.2212 155.004 43.8181 155.743 44.6418 155.83L44.959 152.847ZM45.6523 155.921C46.4784 155.983 47.1984 155.363 47.2603 154.537C47.3223 153.711 46.7029 152.991 45.8767 152.929L45.6523 155.921ZM51.6066 152.958C50.7796 153.006 50.1486 153.716 50.1972 154.543C50.2457 155.37 50.9555 156.001 51.7825 155.952L51.6066 152.958ZM52.7983 155.883C53.6242 155.819 54.2417 155.097 54.1774 154.271C54.1131 153.445 53.3914 152.828 52.5655 152.892L52.7983 155.883ZM58.3011 152.148C57.4855 152.293 56.942 153.072 57.0873 153.888C57.2325 154.703 58.0114 155.247 58.827 155.101L58.3011 152.148ZM59.8205 154.917C60.634 154.76 61.1663 153.974 61.0095 153.16C60.8527 152.347 60.0661 151.815 59.2527 151.971L59.8205 154.917ZM64.9208 150.648C64.1214 150.865 63.6497 151.69 63.8672 152.489C64.0847 153.288 64.909 153.76 65.7084 153.543L64.9208 150.648ZM66.6773 153.273C67.4742 153.047 67.9367 152.217 67.7104 151.421C67.4841 150.624 66.6546 150.161 65.8577 150.387L66.6773 153.273ZM71.4276 148.618C70.6457 148.892 70.2336 149.748 70.5072 150.529C70.7808 151.311 71.6365 151.723 72.4185 151.45L71.4276 148.618ZM73.3626 151.115C74.142 150.834 74.5463 149.975 74.2657 149.195C73.985 148.416 73.1256 148.011 72.3462 148.292L73.3626 151.115ZM77.807 146.167C77.0425 146.486 76.6817 147.364 77.0009 148.129C77.3202 148.893 78.1987 149.254 78.9631 148.935L77.807 146.167ZM79.8856 148.545C80.6475 148.22 81.0016 147.339 80.6764 146.577C80.3512 145.815 79.4699 145.461 78.708 145.786L79.8856 148.545ZM84.0526 143.362C83.3058 143.721 82.991 144.617 83.3495 145.364C83.708 146.111 84.604 146.426 85.3509 146.067L84.0526 143.362ZM86.2487 145.632C86.9929 145.268 87.3014 144.37 86.9376 143.626C86.5738 142.882 85.6755 142.573 84.9313 142.937L86.2487 145.632ZM90.1517 140.246C89.4237 140.642 89.1539 141.552 89.5491 142.28C89.9443 143.008 90.8549 143.278 91.583 142.883L90.1517 140.246ZM92.4351 142.418C93.1628 142.022 93.4316 141.111 93.0356 140.383C92.6396 139.656 91.7287 139.387 91.001 139.783L92.4351 142.418ZM96.2573 137.009C95.5204 137.387 95.2298 138.291 95.6083 139.028C95.9868 139.765 96.891 140.056 97.6279 139.677L96.2573 137.009ZM98.4973 139.233C99.2355 138.857 99.5291 137.953 99.1531 137.215C98.777 136.477 97.8738 136.183 97.1356 136.559L98.4973 139.233ZM102.449 133.916C101.704 134.278 101.393 135.176 101.755 135.921C102.117 136.666 103.015 136.977 103.76 136.615L102.449 133.916ZM104.638 136.19C105.384 135.831 105.698 134.934 105.338 134.188C104.979 133.442 104.082 133.128 103.336 133.488L104.638 136.19ZM108.706 130.965C107.953 131.309 107.622 132.199 107.966 132.953C108.311 133.706 109.201 134.037 109.954 133.693L108.706 130.965ZM110.846 133.287C111.6 132.945 111.934 132.056 111.593 131.301C111.251 130.547 110.362 130.212 109.607 130.554L110.846 133.287ZM115.043 128.165C114.281 128.489 113.925 129.37 114.249 130.132C114.573 130.895 115.454 131.25 116.217 130.926L115.043 128.165ZM117.117 130.546C117.881 130.226 118.24 129.347 117.919 128.583C117.599 127.819 116.72 127.459 115.956 127.78L117.117 130.546ZM121.476 125.561C120.702 125.857 120.315 126.725 120.611 127.498C120.907 128.272 121.774 128.659 122.548 128.363L121.476 125.561ZM123.461 128.017C124.237 127.726 124.63 126.861 124.338 126.086C124.047 125.31 123.183 124.917 122.407 125.208L123.461 128.017ZM128.048 123.237C127.259 123.49 126.824 124.334 127.077 125.123C127.33 125.912 128.174 126.347 128.963 126.094L128.048 123.237ZM129.886 125.804C130.678 125.56 131.121 124.72 130.877 123.929C130.633 123.137 129.794 122.693 129.002 122.937L129.886 125.804ZM134.847 121.404C134.035 121.571 133.513 122.364 133.68 123.176C133.846 123.987 134.639 124.51 135.451 124.343L134.847 121.404ZM136.385 124.163C137.201 124.017 137.743 123.237 137.597 122.422C137.451 121.606 136.671 121.064 135.856 121.21L136.385 124.163ZM142.244 120.932C141.427 120.792 140.652 121.339 140.511 122.156C140.37 122.972 140.918 123.748 141.734 123.889L142.244 120.932ZM142.481 124.063C143.279 124.288 144.107 123.824 144.332 123.026C144.557 122.229 144.092 121.4 143.295 121.176L142.481 124.063ZM148.454 124.184C147.878 123.59 146.928 123.575 146.333 124.151C145.738 124.728 145.724 125.678 146.3 126.272L148.454 124.184ZM146.782 126.82C147.298 127.468 148.242 127.575 148.89 127.059C149.538 126.543 149.645 125.599 149.129 124.951L146.782 126.82ZM151.376 130.562C151.302 129.737 150.573 129.128 149.748 129.202C148.923 129.276 148.314 130.005 148.388 130.83L151.376 130.562ZM148.417 131.557C148.41 132.385 149.075 133.063 149.903 133.071C150.732 133.078 151.41 132.413 151.417 131.585L148.417 131.557ZM149.395 137.395C149.92 136.753 149.825 135.808 149.183 135.284C148.542 134.76 147.597 134.854 147.073 135.496L149.395 137.395ZM146.609 135.994C146.006 136.563 145.978 137.512 146.546 138.115C147.114 138.717 148.064 138.745 148.666 138.177L146.609 135.994ZM142.938 140.497C143.765 140.457 144.404 139.754 144.364 138.927C144.325 138.099 143.622 137.46 142.794 137.5L142.938 140.497ZM38.5069 133.959C38.3294 133.968 38.154 133.98 37.9808 133.994L38.2315 136.984C38.3708 136.972 38.5127 136.962 38.6574 136.955L38.5069 133.959ZM31.9755 136.194C31.6745 136.437 31.3948 136.696 31.1369 136.97L33.3239 139.024C33.4855 138.852 33.6631 138.687 33.8573 138.531L31.9755 136.194ZM29.0076 143.274C29.0363 143.638 29.0864 144.003 29.1574 144.368L32.102 143.794C32.0523 143.539 32.0178 143.286 31.9983 143.038L29.0076 143.274ZM32.061 149.998C32.2894 150.253 32.5301 150.504 32.7829 150.749L34.8717 148.596C34.6698 148.4 34.4789 148.201 34.2988 148L32.061 149.998ZM37.893 154.11C38.197 154.242 38.5084 154.368 38.827 154.488L39.8831 151.68C39.6109 151.577 39.346 151.47 39.0883 151.358L37.893 154.11ZM44.6418 155.83C44.8073 155.848 44.9739 155.864 45.1418 155.879L45.4045 152.891C45.2547 152.877 45.1062 152.863 44.959 152.847L44.6418 155.83ZM45.1418 155.879C45.3117 155.894 45.4819 155.908 45.6523 155.921L45.8767 152.929C45.7189 152.917 45.5615 152.904 45.4045 152.891L45.1418 155.879ZM51.7825 155.952C52.1206 155.933 52.4593 155.909 52.7983 155.883L52.5655 152.892C52.245 152.917 51.9254 152.939 51.6066 152.958L51.7825 155.952ZM58.827 155.101C59.1582 155.042 59.4894 154.981 59.8205 154.917L59.2527 151.971C58.9353 152.033 58.6181 152.091 58.3011 152.148L58.827 155.101ZM65.7084 153.543C66.0319 153.455 66.3549 153.365 66.6773 153.273L65.8577 150.387C65.5458 150.476 65.2335 150.563 64.9208 150.648L65.7084 153.543ZM72.4185 151.45C72.7343 151.339 73.049 151.228 73.3626 151.115L72.3462 148.292C72.041 148.402 71.7348 148.511 71.4276 148.618L72.4185 151.45ZM78.9631 148.935C79.2724 148.806 79.5799 148.676 79.8856 148.545L78.708 145.786C78.4093 145.914 78.109 146.04 77.807 146.167L78.9631 148.935ZM85.3509 146.067C85.6529 145.922 85.9522 145.777 86.2487 145.632L84.9313 142.937C84.6411 143.079 84.3482 143.221 84.0526 143.362L85.3509 146.067ZM91.583 142.883C91.729 142.804 91.8738 142.725 92.0174 142.646L90.5766 140.015C90.4361 140.092 90.2945 140.169 90.1517 140.246L91.583 142.883ZM92.0174 142.646C92.1545 142.571 92.2938 142.495 92.4351 142.418L91.001 139.783C90.8575 139.861 90.716 139.938 90.5766 140.015L92.0174 142.646ZM97.6279 139.677C97.914 139.53 98.2039 139.382 98.4973 139.233L97.1356 136.559C96.8392 136.71 96.5463 136.86 96.2573 137.009L97.6279 139.677ZM103.76 136.615C104.051 136.474 104.343 136.332 104.638 136.19L103.336 133.488C103.039 133.631 102.743 133.774 102.449 133.916L103.76 136.615ZM109.954 133.693C110.251 133.557 110.548 133.422 110.846 133.287L109.607 130.554C109.306 130.691 109.006 130.828 108.706 130.965L109.954 133.693ZM116.217 130.926C116.517 130.799 116.817 130.672 117.117 130.546L115.956 127.78C115.652 127.908 115.348 128.036 115.043 128.165L116.217 130.926ZM122.548 128.363C122.853 128.246 123.158 128.131 123.461 128.017L122.407 125.208C122.098 125.325 121.787 125.442 121.476 125.561L122.548 128.363ZM128.963 126.094C129.273 125.995 129.581 125.898 129.886 125.804L129.002 122.937C128.687 123.034 128.369 123.134 128.048 123.237L128.963 126.094ZM135.451 124.343C135.769 124.278 136.081 124.218 136.385 124.163L135.856 121.21C135.525 121.269 135.188 121.334 134.847 121.404L135.451 124.343ZM141.734 123.889C141.866 123.911 141.99 123.937 142.106 123.965L142.812 121.049C142.626 121.004 142.436 120.965 142.244 120.932L141.734 123.889ZM142.106 123.965C142.233 123.996 142.358 124.029 142.481 124.063L143.295 121.176C143.136 121.131 142.975 121.089 142.812 121.049L142.106 123.965ZM146.3 126.272C146.472 126.449 146.632 126.632 146.782 126.82L149.129 124.951C148.918 124.687 148.694 124.431 148.454 124.184L146.3 126.272ZM148.388 130.83C148.41 131.073 148.42 131.316 148.417 131.557L151.417 131.585C151.42 131.245 151.407 130.903 151.376 130.562L148.388 130.83ZM147.073 135.496C146.929 135.672 146.774 135.838 146.609 135.994L148.666 138.177C148.928 137.931 149.171 137.669 149.395 137.395L147.073 135.496ZM142.794 137.5C142.672 137.506 142.547 137.509 142.419 137.509L142.425 140.509C142.598 140.509 142.769 140.505 142.938 140.497L142.794 137.5Z" fill="#FFFBD7"/>
    </g>
    <g opacity="0.2">
        <path d="M45.753 36.5876C46.4383 36.3904 46.836 35.6723 46.637 34.9865L45.622 31.4703C45.4236 30.7839 44.7074 30.3879 44.0209 30.5863C43.3368 30.7831 42.9379 31.5005 43.1369 32.1874L44.152 35.7036C44.3503 36.39 45.0666 36.7859 45.753 36.5876Z" fill="white"/>
        <path d="M160.979 80.7306C160.992 81.4435 161.582 82.0136 162.296 81.9989L165.955 81.9285C166.67 81.9145 167.238 81.3251 167.224 80.6107C167.211 79.899 166.621 79.328 165.906 79.3425L162.247 79.4129C161.533 79.4268 160.965 80.0162 160.979 80.7306Z" fill="white"/>
        <path d="M30.6617 38.295L35.8236 42.0778C36.4011 42.4999 37.2104 42.3741 37.6317 41.7988C38.0534 41.2224 37.9286 40.4135 37.3526 39.9907L32.1908 36.2079C31.6095 35.7827 30.8005 35.9162 30.3827 36.4869C29.961 37.0633 30.0857 37.8722 30.6617 38.295Z" fill="white"/>
        <path d="M159.387 66.1512L156.297 71.7552C155.952 72.3821 156.181 73.1686 156.805 73.5127C157.431 73.8571 158.217 73.6297 158.563 73.0042L161.653 67.4002C162 66.7692 161.764 65.984 161.144 65.6428C160.519 65.2984 159.733 65.5257 159.387 66.1512Z" fill="white"/>
        <path d="M133.951 39.1223L134.866 38.2079C135.371 37.7026 135.371 36.8842 134.866 36.3789C134.36 35.8737 133.542 35.8737 133.037 36.3789L132.122 37.2933L131.208 36.3789C130.703 35.8737 129.884 35.8737 129.379 36.3789C128.874 36.8842 128.874 37.7026 129.379 38.2079L130.293 39.1223L129.379 40.0367C128.874 40.5419 128.874 41.3604 129.379 41.8656C129.884 42.3708 130.703 42.3709 131.208 41.8656L132.122 40.9512L133.037 41.8656C133.542 42.3708 134.36 42.3709 134.866 41.8656C135.371 41.3604 135.371 40.5419 134.866 40.0367L133.951 39.1223Z" fill="white"/>
        <path d="M62.9512 34.1223L63.8656 33.2079C64.3708 32.7026 64.3708 31.8842 63.8656 31.3789C63.3604 30.8737 62.5419 30.8737 62.0367 31.3789L61.1223 32.2933L60.2079 31.3789C59.7026 30.8737 58.8842 30.8737 58.3789 31.3789C57.8737 31.8842 57.8737 32.7026 58.3789 33.2079L59.2933 34.1223L58.3789 35.0367C57.8737 35.5419 57.8737 36.3604 58.3789 36.8656C58.8842 37.3708 59.7026 37.3709 60.2079 36.8656L61.1223 35.9512L62.0367 36.8656C62.5419 37.3708 63.3603 37.3709 63.8656 36.8656C64.3708 36.3604 64.3708 35.5419 63.8656 35.0367L62.9512 34.1223Z" fill="white"/>
        <path d="M12.9512 74.1223L13.8656 73.2079C14.3708 72.7026 14.3708 71.8842 13.8656 71.3789C13.3604 70.8737 12.5419 70.8737 12.0367 71.3789L11.1223 72.2933L10.2079 71.3789C9.70264 70.8737 8.88415 70.8737 8.37892 71.3789C7.87369 71.8842 7.87369 72.7026 8.37892 73.2079L9.29332 74.1223L8.37892 75.0367C7.87369 75.5419 7.87369 76.3604 8.37892 76.8656C8.88415 77.3708 9.70256 77.3709 10.2079 76.8656L11.1223 75.9512L12.0367 76.8656C12.5419 77.3708 13.3603 77.3709 13.8656 76.8656C14.3708 76.3604 14.3708 75.5419 13.8656 75.0367L12.9512 74.1223Z" fill="white"/>
        <path d="M17.2934 65.5868C18.0077 65.5868 18.5868 65.0077 18.5868 64.2934C18.5868 63.5791 18.0077 63 17.2934 63C16.5791 63 16 63.5791 16 64.2934C16 65.0077 16.5791 65.5868 17.2934 65.5868Z" fill="white"/>
        <path d="M139.293 52.5868C140.008 52.5868 140.587 52.0077 140.587 51.2934C140.587 50.5791 140.008 50 139.293 50C138.579 50 138 50.5791 138 51.2934C138 52.0077 138.579 52.5868 139.293 52.5868Z" fill="white"/>
        <path d="M50.1119 45.3126C49.3976 45.3126 48.8185 45.8917 48.8185 46.606C48.8185 47.3203 49.3976 47.8994 50.1119 47.8994C50.8262 47.8994 51.4053 47.3203 51.4053 46.606C51.4053 45.8917 50.8262 45.3126 50.1119 45.3126Z" fill="white"/>
    </g>
    <defs>
        <filter id="filter0_d_470_5184" x="0.364258" y="0.108902" width="179.608" height="179.608" filterUnits="userSpaceOnUse" color-interpolation-filters="sRGB">
            <feFlood flood-opacity="0" result="BackgroundImageFix"/>
            <feColorMatrix in="SourceAlpha" type="matrix" values="0 0 0 0 0 0 0 0 0 0 0 0 0 0 0 0 0 0 127 0" result="hardAlpha"/>
            <feOffset dy="1.3293"/>
            <feGaussianBlur stdDeviation="24"/>
            <feComposite in2="hardAlpha" operator="out"/>
            <feColorMatrix type="matrix" values="0 0 0 0 1 0 0 0 0 1 0 0 0 0 1 0 0 0 1 0"/>
            <feBlend mode="normal" in2="BackgroundImageFix" result="effect1_dropShadow_470_5184"/>
            <feBlend mode="normal" in="SourceGraphic" in2="effect1_dropShadow_470_5184" result="shape"/>
        </filter>
        <filter id="filter1_d_470_5184" x="50.8541" y="92.6306" width="57.661" height="57.661" filterUnits="userSpaceOnUse" color-interpolation-filters="sRGB">
            <feFlood flood-opacity="0" result="BackgroundImageFix"/>
            <feColorMatrix in="SourceAlpha" type="matrix" values="0 0 0 0 0 0 0 0 0 0 0 0 0 0 0 0 0 0 127 0" result="hardAlpha"/>
            <feOffset dy="1.3293"/>
            <feGaussianBlur stdDeviation="9.63742"/>
            <feComposite in2="hardAlpha" operator="out"/>
            <feColorMatrix type="matrix" values="0 0 0 0 0.061493 0 0 0 0 0.670833 0 0 0 0 0.562023 0 0 0 1 0"/>
            <feBlend mode="normal" in2="BackgroundImageFix" result="effect1_dropShadow_470_5184"/>
            <feBlend mode="normal" in="SourceGraphic" in2="effect1_dropShadow_470_5184" result="shape"/>
        </filter>
        <filter id="filter2_d_470_5184" x="61.4888" y="96.9508" width="57.661" height="57.661" filterUnits="userSpaceOnUse" color-interpolation-filters="sRGB">
            <feFlood flood-opacity="0" result="BackgroundImageFix"/>
            <feColorMatrix in="SourceAlpha" type="matrix" values="0 0 0 0 0 0 0 0 0 0 0 0 0 0 0 0 0 0 127 0" result="hardAlpha"/>
            <feOffset dy="1.3293"/>
            <feGaussianBlur stdDeviation="9.63742"/>
            <feComposite in2="hardAlpha" operator="out"/>
            <feColorMatrix type="matrix" values="0 0 0 0 0.061493 0 0 0 0 0.670833 0 0 0 0 0.562023 0 0 0 1 0"/>
            <feBlend mode="normal" in2="BackgroundImageFix" result="effect1_dropShadow_470_5184"/>
            <feBlend mode="normal" in="SourceGraphic" in2="effect1_dropShadow_470_5184" result="shape"/>
        </filter>
        <filter id="filter3_d_470_5184" x="72.1236" y="92.6306" width="57.661" height="57.661" filterUnits="userSpaceOnUse" color-interpolation-filters="sRGB">
            <feFlood flood-opacity="0" result="BackgroundImageFix"/>
            <feColorMatrix in="SourceAlpha" type="matrix" values="0 0 0 0 0 0 0 0 0 0 0 0 0 0 0 0 0 0 127 0" result="hardAlpha"/>
            <feOffset dy="1.3293"/>
            <feGaussianBlur stdDeviation="9.63742"/>
            <feComposite in2="hardAlpha" operator="out"/>
            <feColorMatrix type="matrix" values="0 0 0 0 0.061493 0 0 0 0 0.670833 0 0 0 0 0.562023 0 0 0 1 0"/>
            <feBlend mode="normal" in2="BackgroundImageFix" result="effect1_dropShadow_470_5184"/>
            <feBlend mode="normal" in="SourceGraphic" in2="effect1_dropShadow_470_5184" result="shape"/>
        </filter>
        <filter id="filter4_d_470_5184" x="89.7359" y="80.9992" width="57.661" height="57.661" filterUnits="userSpaceOnUse" color-interpolation-filters="sRGB">
            <feFlood flood-opacity="0" result="BackgroundImageFix"/>
            <feColorMatrix in="SourceAlpha" type="matrix" values="0 0 0 0 0 0 0 0 0 0 0 0 0 0 0 0 0 0 127 0" result="hardAlpha"/>
            <feOffset dy="1.3293"/>
            <feGaussianBlur stdDeviation="9.63742"/>
            <feComposite in2="hardAlpha" operator="out"/>
            <feColorMatrix type="matrix" values="0 0 0 0 0.061493 0 0 0 0 0.670833 0 0 0 0 0.562023 0 0 0 1 0"/>
            <feBlend mode="normal" in2="BackgroundImageFix" result="effect1_dropShadow_470_5184"/>
            <feBlend mode="normal" in="SourceGraphic" in2="effect1_dropShadow_470_5184" result="shape"/>
        </filter>
        <filter id="filter5_d_470_5184" x="33.9048" y="81.6638" width="57.661" height="57.661" filterUnits="userSpaceOnUse" color-interpolation-filters="sRGB">
            <feFlood flood-opacity="0" result="BackgroundImageFix"/>
            <feColorMatrix in="SourceAlpha" type="matrix" values="0 0 0 0 0 0 0 0 0 0 0 0 0 0 0 0 0 0 127 0" result="hardAlpha"/>
            <feOffset dy="1.3293"/>
            <feGaussianBlur stdDeviation="9.63742"/>
            <feComposite in2="hardAlpha" operator="out"/>
            <feColorMatrix type="matrix" values="0 0 0 0 0.061493 0 0 0 0 0.670833 0 0 0 0 0.562023 0 0 0 1 0"/>
            <feBlend mode="normal" in2="BackgroundImageFix" result="effect1_dropShadow_470_5184"/>
            <feBlend mode="normal" in="SourceGraphic" in2="effect1_dropShadow_470_5184" result="shape"/>
        </filter>
        <filter id="filter6_d_470_5184" x="13.0029" y="120.91" width="154.415" height="78.0449" filterUnits="userSpaceOnUse" color-interpolation-filters="sRGB">
            <feFlood flood-opacity="0" result="BackgroundImageFix"/>
            <feColorMatrix in="SourceAlpha" type="matrix" values="0 0 0 0 0 0 0 0 0 0 0 0 0 0 0 0 0 0 127 0" result="hardAlpha"/>
            <feOffset dy="27"/>
            <feGaussianBlur stdDeviation="8"/>
            <feComposite in2="hardAlpha" operator="out"/>
            <feColorMatrix type="matrix" values="0 0 0 0 0.433333 0 0 0 0 0.864 0 0 0 0 1 0 0 0 0.3 0"/>
            <feBlend mode="normal" in2="BackgroundImageFix" result="effect1_dropShadow_470_5184"/>
            <feBlend mode="normal" in="SourceGraphic" in2="effect1_dropShadow_470_5184" result="shape"/>
        </filter>
    </defs>
</svg>
