<svg width="16" height="16" viewBox="0 0 16 16" fill="none" xmlns="http://www.w3.org/2000/svg">
<path d="M2 2V4H4V2H2ZM6 0V6H0V0H6Z" fill="#B2BBC0"/>
<path d="M2 12V14H4V12H2ZM6 10V16H0V10H6Z" fill="#B2BBC0"/>
<path d="M12 2V4H14V2H12ZM16 0V6H10V0H16Z" fill="#B2BBC0"/>
<path d="M9 2H7V6H9V2Z" fill="#B2BBC0"/>
<path fill-rule="evenodd" clip-rule="evenodd" d="M7 9H5V7H7H9V11H7V9Z" fill="#B2BBC0"/>
<path d="M2 7H0V9H2V7Z" fill="#B2BBC0"/>
<path d="M12 7H10V9H12V7Z" fill="#B2BBC0"/>
<path d="M16 7H14V9H16V7Z" fill="#B2BBC0"/>
<path d="M14 9H12V11H14V9Z" fill="#B2BBC0"/>
<path d="M14 14H12V16H14V14Z" fill="#B2BBC0"/>
<path fill-rule="evenodd" clip-rule="evenodd" d="M9 12H10V11H12V14H10H9V16H7V12H9Z" fill="#B2BBC0"/>
<path d="M16 11H14V14H16V11Z" fill="#B2BBC0"/>
</svg>
