<svg width="44" height="44" viewBox="0 0 44 44" fill="none" xmlns="http://www.w3.org/2000/svg">
<path fill-rule="evenodd" clip-rule="evenodd" d="M16.5 3.66675H7.33334C5.30829 3.66675 3.66667 5.30837 3.66667 7.33342V16.5001C3.66667 18.5251 5.30829 20.1667 7.33334 20.1667H16.5C18.5251 20.1667 20.1667 18.5251 20.1667 16.5001V7.33342C20.1667 5.30837 18.5251 3.66675 16.5 3.66675ZM7.33334 16.5001V7.33341H16.5V16.5001H7.33334Z" fill="#008C73"/>
<path fill-rule="evenodd" clip-rule="evenodd" d="M36.6667 23.8335H27.5C25.475 23.8335 23.8333 25.4751 23.8333 27.5002V36.6668C23.8333 38.6919 25.475 40.3335 27.5 40.3335H36.6667C38.6917 40.3335 40.3333 38.6919 40.3333 36.6668V27.5002C40.3333 25.4751 38.6917 23.8335 36.6667 23.8335ZM27.5 36.6668V27.5002H36.6667V36.6668H27.5Z" fill="#008C73"/>
<path fill-rule="evenodd" clip-rule="evenodd" d="M40.3333 11.9167C40.3333 16.4731 36.6397 20.1667 32.0833 20.1667C27.527 20.1667 23.8333 16.4731 23.8333 11.9167C23.8333 7.3604 27.527 3.66675 32.0833 3.66675C36.6397 3.66675 40.3333 7.3604 40.3333 11.9167ZM27.5 11.9167C27.5 14.4481 29.552 16.5001 32.0833 16.5001C34.6146 16.5001 36.6667 14.4481 36.6667 11.9167C36.6667 9.38544 34.6146 7.33341 32.0833 7.33341C29.552 7.33341 27.5 9.38544 27.5 11.9167Z" fill="#008C73"/>
<path fill-rule="evenodd" clip-rule="evenodd" d="M11.9191 34.5749L6.66674 39.8273C5.98474 40.5093 4.87007 40.5093 4.18624 39.8273L4.1789 39.8181C3.4969 39.1361 3.4969 38.0196 4.1789 37.3357L9.42957 32.0851L4.17964 26.8344C3.49764 26.1524 3.49764 25.0359 4.17964 24.3539L4.18697 24.3448C4.8708 23.6628 5.98547 23.6628 6.66747 24.3448L11.9191 29.5956L17.1699 24.3448C17.8519 23.6628 18.9684 23.6628 19.6504 24.3448L19.6596 24.3539C20.3416 25.0359 20.3416 26.1524 19.6596 26.8344L14.4089 32.0851L19.6603 37.3357C20.3423 38.0196 20.3423 39.1361 19.6603 39.8181L19.6511 39.8273C18.9691 40.5093 17.8526 40.5093 17.1706 39.8273L11.9191 34.5749Z" fill="#008C73"/>
</svg>
