<svg width="63" height="40" viewBox="0 0 63 40" fill="none" xmlns="http://www.w3.org/2000/svg">
<path d="M12.8861 7.8372C23.1534 -2.60882 39.7888 -2.60882 50.0697 7.8372L51.3059 9.09737C51.4272 9.22038 51.5236 9.36736 51.5894 9.52968C51.6552 9.692 51.6891 9.86637 51.6891 10.0425C51.6891 10.2187 51.6552 10.393 51.5894 10.5553C51.5236 10.7177 51.4272 10.8646 51.3059 10.9876L47.0764 15.2885C46.9503 15.411 46.7841 15.479 46.6115 15.479C46.439 15.479 46.2728 15.411 46.1467 15.2885L44.444 13.5611C40.9696 10.0542 36.3174 8.09267 31.4745 8.09267C26.6317 8.09267 21.9794 10.0542 18.505 13.5611L16.6865 15.416C16.563 15.5422 16.3967 15.613 16.2234 15.613C16.0501 15.613 15.8838 15.5422 15.7603 15.416L11.5308 11.1151C11.4089 10.992 11.3121 10.8448 11.246 10.6822C11.1798 10.5195 11.1458 10.3447 11.1458 10.1682C11.1458 9.9916 11.1798 9.81682 11.246 9.65418C11.3121 9.49153 11.4089 9.34433 11.5308 9.22127L12.8861 7.8372ZM58.8114 16.7363L62.5574 20.5629C62.6792 20.6859 62.776 20.8331 62.8421 20.9958C62.9083 21.1584 62.9423 21.3332 62.9423 21.5098C62.9423 21.6863 62.9083 21.8611 62.8421 22.0238C62.776 22.1864 62.6792 22.3336 62.5574 22.4567L45.6087 39.7204C45.36 39.9725 45.0263 40.1136 44.679 40.1136C44.3316 40.1136 43.998 39.9725 43.7493 39.7204L31.7112 27.4691C31.648 27.4073 31.5646 27.373 31.4779 27.373C31.3912 27.373 31.3078 27.4073 31.2446 27.4691L19.2065 39.7204C18.9579 39.9725 18.6242 40.1136 18.2769 40.1136C17.9295 40.1136 17.5959 39.9725 17.3472 39.7204L0.384867 22.4567C0.263045 22.3336 0.166205 22.1864 0.100077 22.0238C0.0339494 21.8611 -0.00012207 21.6863 -0.00012207 21.5098C-0.00012207 21.3332 0.0339494 21.1584 0.100077 20.9958C0.166205 20.8331 0.263045 20.6859 0.384867 20.5629L4.13081 16.7363C4.3795 16.4842 4.71311 16.3431 5.06049 16.3431C5.40786 16.3431 5.74148 16.4842 5.99016 16.7363L18.0317 28.9876C18.0947 29.0483 18.1774 29.0821 18.2632 29.0821C18.3491 29.0821 18.4318 29.0483 18.4948 28.9876L30.5363 16.7363C30.7844 16.4844 31.1175 16.3434 31.4643 16.3434C31.8111 16.3434 32.1442 16.4844 32.3923 16.7363L44.4338 28.9876C44.4968 29.0483 44.5795 29.0821 44.6654 29.0821C44.7512 29.0821 44.834 29.0483 44.8969 28.9876L56.9384 16.7363C57.1877 16.4799 57.5242 16.3361 57.8749 16.3361C58.2256 16.3361 58.5621 16.4799 58.8114 16.7363Z" fill="#3A99FB"/>
</svg>
