<svg width="344" height="186" viewBox="0 0 344 186" fill="none" xmlns="http://www.w3.org/2000/svg">
<path d="M153.696 155.096C155.68 155.096 157.504 153.976 157.504 151.896C157.504 149.768 155.888 149.256 153.984 148.504C152.56 147.96 151.536 147.56 151.552 146.472C151.568 145.384 152.512 144.808 153.584 144.808C154.432 144.808 155.408 145.208 156.32 145.96L157.168 144.856C156.096 143.992 154.848 143.528 153.584 143.528C151.632 143.528 150.112 144.84 150.112 146.536C150.112 148.536 151.824 149.256 153.504 149.88C155.024 150.456 156.048 150.792 156.048 152.056C156.048 153.16 155.104 153.8 153.712 153.8C152.608 153.8 151.392 153.288 150.576 152.264L149.68 153.336C150.816 154.552 152.272 155.096 153.696 155.096ZM161.697 155.096C162.625 155.096 163.153 154.872 163.585 154.616L163.249 153.48C162.865 153.688 162.385 153.88 161.921 153.88C161.185 153.88 160.977 153.432 160.977 152.488V148.328H163.553V147.208H160.977V144.408L159.681 144.552V147.208H158.673V148.328H159.681V152.68C159.681 154.248 160.321 155.096 161.697 155.096ZM168.207 155.096C169.471 155.096 170.431 154.52 170.991 153.592H171.007V155H172.255V147.208H170.959V148.584L170.927 148.6C170.367 147.656 169.359 147.112 168.207 147.112C165.999 147.112 164.415 148.856 164.415 151.16C164.415 153.528 166.063 155.096 168.207 155.096ZM168.399 153.912C166.799 153.912 165.727 152.728 165.727 151.16C165.727 149.432 166.927 148.296 168.399 148.296C169.935 148.296 171.007 149.56 171.007 151.16C171.007 152.808 169.839 153.912 168.399 153.912ZM174.583 155H175.879V151.24C175.879 149.672 176.759 148.536 178.247 148.536C178.375 148.536 178.567 148.552 178.759 148.568V147.128C178.647 147.112 178.551 147.112 178.439 147.112C177.367 147.112 176.471 147.688 175.911 148.632H175.879V147.208H174.583V155ZM182.416 155.096C183.344 155.096 183.872 154.872 184.304 154.616L183.968 153.48C183.584 153.688 183.104 153.88 182.64 153.88C181.904 153.88 181.696 153.432 181.696 152.488V148.328H184.272V147.208H181.696V144.408L180.4 144.552V147.208H179.392V148.328H180.4V152.68C180.4 154.248 181.04 155.096 182.416 155.096ZM193.756 155.096C195.276 155.096 196.316 154.52 196.972 153.736L196.076 152.92C195.596 153.512 194.78 153.912 193.852 153.912C192.268 153.912 191.196 152.776 191.196 151.112C191.196 149.464 192.268 148.296 193.868 148.296C194.796 148.296 195.564 148.712 196.06 149.288L196.94 148.504C196.172 147.592 194.972 147.112 193.804 147.112C191.484 147.112 189.868 148.76 189.868 151.112C189.868 153.48 191.484 155.096 193.756 155.096ZM198.708 155H200.004V151.24C200.004 149.672 200.884 148.536 202.372 148.536C202.5 148.536 202.692 148.552 202.884 148.568V147.128C202.772 147.112 202.676 147.112 202.564 147.112C201.492 147.112 200.596 147.688 200.036 148.632H200.004V147.208H198.708V155ZM211.027 150.968C211.027 148.744 209.571 147.112 207.443 147.112C205.219 147.112 203.603 148.76 203.603 151.112C203.603 153.496 205.235 155.096 207.539 155.096C209.107 155.096 210.083 154.504 210.755 153.64L209.843 152.872C209.363 153.464 208.627 153.912 207.587 153.912C206.115 153.912 205.091 152.952 204.915 151.496H210.995C210.995 151.4 211.027 151.176 211.027 150.968ZM207.427 148.296C208.707 148.296 209.539 149.16 209.731 150.44H204.947C205.187 149.112 206.179 148.296 207.427 148.296ZM216.207 155.096C217.471 155.096 218.431 154.52 218.991 153.592H219.007V155H220.255V147.208H218.959V148.584L218.927 148.6C218.367 147.656 217.359 147.112 216.207 147.112C213.999 147.112 212.415 148.856 212.415 151.16C212.415 153.528 214.063 155.096 216.207 155.096ZM216.399 153.912C214.799 153.912 213.727 152.728 213.727 151.16C213.727 149.432 214.927 148.296 216.399 148.296C217.935 148.296 219.007 149.56 219.007 151.16C219.007 152.808 217.839 153.912 216.399 153.912ZM224.775 155.096C225.703 155.096 226.231 154.872 226.663 154.616L226.327 153.48C225.943 153.688 225.463 153.88 224.999 153.88C224.263 153.88 224.055 153.432 224.055 152.488V148.328H226.631V147.208H224.055V144.408L222.759 144.552V147.208H221.751V148.328H222.759V152.68C222.759 154.248 223.399 155.096 224.775 155.096ZM229.07 145.784C229.598 145.784 230.014 145.368 230.014 144.856C230.014 144.344 229.598 143.928 229.07 143.928C228.542 143.928 228.126 144.344 228.126 144.856C228.126 145.368 228.542 145.784 229.07 145.784ZM228.414 155H229.71V147.208H228.414V155ZM232.239 155H233.535V151.112C233.535 149.352 234.495 148.296 235.967 148.296C237.103 148.296 237.887 148.92 237.887 150.744V155H239.183V150.376C239.183 148.152 238.063 147.112 236.383 147.112C235.183 147.112 234.159 147.672 233.551 148.616H233.535V147.208H232.239V155ZM244.898 158.264C247.618 158.264 248.738 156.664 248.738 154.424V147.208H247.442V148.456H247.41C246.786 147.608 245.778 147.112 244.674 147.112C242.482 147.112 240.946 148.776 240.946 151C240.946 153.32 242.594 154.856 244.722 154.856C245.922 154.856 246.85 154.328 247.426 153.496H247.458V154.744C247.458 156.056 246.61 157.08 244.85 157.08C243.73 157.08 242.946 156.776 242.05 156.264L241.73 157.416C242.658 157.976 243.73 158.264 244.898 158.264ZM244.882 153.656C243.41 153.656 242.258 152.616 242.258 150.968C242.258 149.448 243.314 148.312 244.898 148.312C246.354 148.312 247.49 149.368 247.49 150.936C247.49 152.488 246.45 153.656 244.882 153.656ZM258.691 155.096C259.955 155.096 260.915 154.52 261.475 153.592H261.491V155H262.739V147.208H261.443V148.584L261.411 148.6C260.851 147.656 259.843 147.112 258.691 147.112C256.483 147.112 254.899 148.856 254.899 151.16C254.899 153.528 256.547 155.096 258.691 155.096ZM258.883 153.912C257.283 153.912 256.211 152.728 256.211 151.16C256.211 149.432 257.411 148.296 258.883 148.296C260.419 148.296 261.491 149.56 261.491 151.16C261.491 152.808 260.323 153.912 258.883 153.912ZM269.427 155H270.723V151.112C270.723 149.352 271.683 148.296 273.155 148.296C274.291 148.296 275.075 148.92 275.075 150.744V155H276.371V150.376C276.371 148.152 275.251 147.112 273.571 147.112C272.371 147.112 271.347 147.672 270.739 148.616H270.723V147.208H269.427V155ZM285.574 150.968C285.574 148.744 284.118 147.112 281.99 147.112C279.766 147.112 278.15 148.76 278.15 151.112C278.15 153.496 279.782 155.096 282.086 155.096C283.654 155.096 284.63 154.504 285.302 153.64L284.39 152.872C283.91 153.464 283.174 153.912 282.134 153.912C280.662 153.912 279.638 152.952 279.462 151.496H285.542C285.542 151.4 285.574 151.176 285.574 150.968ZM281.974 148.296C283.254 148.296 284.086 149.16 284.278 150.44H279.494C279.734 149.112 280.726 148.296 281.974 148.296ZM289.003 155H290.187L291.979 149.288H291.995L293.787 155H295.003L297.691 147.208H296.363L294.411 153.064H294.379L292.555 147.208H291.435L289.643 153.064H289.611L287.643 147.208H286.315L289.003 155ZM307.757 155.096C309.901 155.096 311.549 153.528 311.549 151.16C311.549 148.856 309.965 147.112 307.757 147.112C306.573 147.112 305.581 147.64 304.989 148.568H304.973V143.224H303.677V155H304.909V153.592H304.941C305.517 154.52 306.477 155.096 307.757 155.096ZM307.581 153.912C306.093 153.912 304.909 152.808 304.909 151.16C304.909 149.56 305.981 148.296 307.565 148.296C309.037 148.296 310.237 149.432 310.237 151.16C310.237 152.728 309.149 153.912 307.581 153.912ZM316.785 155.096C318.049 155.096 319.009 154.52 319.569 153.592H319.585V155H320.833V147.208H319.537V148.584L319.505 148.6C318.945 147.656 317.937 147.112 316.785 147.112C314.577 147.112 312.993 148.856 312.993 151.16C312.993 153.528 314.641 155.096 316.785 155.096ZM316.977 153.912C315.377 153.912 314.305 152.728 314.305 151.16C314.305 149.432 315.505 148.296 316.977 148.296C318.513 148.296 319.585 149.56 319.585 151.16C319.585 152.808 318.417 153.912 316.977 153.912ZM325.353 155.096C326.281 155.096 326.809 154.872 327.241 154.616L326.905 153.48C326.521 153.688 326.041 153.88 325.577 153.88C324.841 153.88 324.633 153.432 324.633 152.488V148.328H327.209V147.208H324.633V144.408L323.337 144.552V147.208H322.329V148.328H323.337V152.68C323.337 154.248 323.977 155.096 325.353 155.096ZM331.96 155.096C333.48 155.096 334.52 154.52 335.176 153.736L334.28 152.92C333.8 153.512 332.984 153.912 332.056 153.912C330.472 153.912 329.4 152.776 329.4 151.112C329.4 149.464 330.472 148.296 332.072 148.296C333 148.296 333.768 148.712 334.264 149.288L335.144 148.504C334.376 147.592 333.176 147.112 332.008 147.112C329.688 147.112 328.072 148.76 328.072 151.112C328.072 153.48 329.688 155.096 331.96 155.096ZM336.911 155H338.207V151.08C338.207 149.32 339.167 148.296 340.719 148.296C341.855 148.296 342.639 148.936 342.639 150.696V155H343.935V150.328C343.935 148.104 342.783 147.112 341.103 147.112C339.855 147.112 338.831 147.64 338.223 148.568H338.207V143.224H336.911V155Z" fill="#566976"/>
<path d="M175.58 179.388C175.845 179.313 176 179.036 175.925 178.771C175.85 178.505 175.574 178.35 175.308 178.425L175.58 179.388ZM3.03387 93.136C2.78056 93.026 2.48608 93.1423 2.37615 93.3956L0.584652 97.5236C0.474718 97.7769 0.590951 98.0714 0.844267 98.1813C1.09758 98.2913 1.39206 98.175 1.50199 97.9217L3.09443 94.2524L6.76378 95.8448C7.0171 95.9547 7.31157 95.8385 7.42151 95.5852C7.53144 95.3319 7.41521 95.0374 7.16189 94.9275L3.03387 93.136ZM2.36974 93.7782C2.85072 94.9968 3.36813 96.1974 3.92007 97.3792L4.82613 96.956C4.28268 95.7924 3.77333 94.6105 3.2999 93.4111L2.36974 93.7782ZM7.6502 104.267C9.02862 106.491 10.5322 108.631 12.1454 110.678L12.9308 110.059C11.3403 108.041 9.85838 105.932 8.5002 103.74L7.6502 104.267ZM17.3165 116.555C19.1481 118.424 21.0753 120.191 23.0824 121.85L23.7193 121.079C21.7389 119.442 19.8375 117.699 18.0307 115.855L17.3165 116.555ZM29.3677 126.516C31.5523 127.968 33.8031 129.3 36.1037 130.503L36.567 129.617C34.2977 128.43 32.077 127.116 29.9213 125.683L29.3677 126.516ZM43.225 133.75C45.6772 134.71 48.1647 135.525 50.6696 136.185L50.9245 135.218C48.4578 134.568 46.0069 133.765 43.5895 132.819L43.225 133.75ZM58.3574 137.712C60.9731 138.061 63.5882 138.233 66.1826 138.22L66.1772 137.22C63.6308 137.233 61.0616 137.064 58.4896 136.721L58.3574 137.712ZM74.0031 137.589C76.5949 137.175 79.1435 136.555 81.6271 135.718L81.3074 134.77C78.8787 135.589 76.3845 136.196 73.8457 136.601L74.0031 137.589ZM88.8184 132.562C91.0803 131.319 93.2596 129.861 95.3364 128.178L94.7069 127.401C92.6765 129.046 90.5468 130.471 88.3367 131.686L88.8184 132.562ZM100.999 122.723C102.667 120.824 104.236 118.738 105.694 116.46L104.851 115.921C103.42 118.158 101.881 120.203 100.248 122.063L100.999 122.723ZM109.461 109.59C110.008 108.422 110.53 107.215 111.026 105.968L110.097 105.598C109.608 106.827 109.093 108.016 108.555 109.166L109.461 109.59ZM111.026 105.968C111.543 104.671 111.972 103.382 112.319 102.105L111.354 101.843C111.017 103.083 110.6 104.336 110.097 105.598L111.026 105.968ZM113.46 94.0749C113.494 91.2408 113.129 88.5339 112.435 86.0145L111.471 86.2802C112.14 88.709 112.493 91.3225 112.46 94.0629L113.46 94.0749ZM109.121 78.5907C107.587 76.2261 105.71 74.1985 103.596 72.6037L102.994 73.402C105.01 74.9231 106.808 76.8632 108.282 79.135L109.121 78.5907ZM96.2222 69.1107C93.5898 68.5081 90.8241 68.5029 88.0565 69.2055L88.3026 70.1747C90.9116 69.5124 93.5164 69.5172 95.9991 70.0855L96.2222 69.1107ZM80.7587 72.8395C78.8 74.3453 76.9093 76.282 75.1353 78.6883L75.9403 79.2817C77.665 76.9422 79.4916 75.075 81.3682 73.6323L80.7587 72.8395ZM70.9904 85.6652C70.4278 86.8329 69.8859 88.0671 69.3668 89.3699L70.2958 89.7401C70.8066 88.4578 71.3393 87.2449 71.8913 86.0992L70.9904 85.6652ZM69.3668 89.3699C68.8708 90.6147 68.4121 91.8957 67.9917 93.2084L68.9441 93.5134C69.3577 92.2219 69.8086 90.9627 70.2958 89.7401L69.3668 89.3699ZM66.0003 101.101C65.5045 103.717 65.1459 106.415 64.9317 109.166L65.9287 109.243C66.1401 106.528 66.4939 103.867 66.9828 101.287L66.0003 101.101ZM64.7222 117.299C64.7911 119.986 64.9962 122.699 65.3438 125.414L66.3357 125.287C65.9924 122.606 65.7899 119.927 65.7219 117.273L64.7222 117.299ZM66.7916 133.423C67.4096 136.051 68.1687 138.661 69.0749 141.232L70.018 140.899C69.1242 138.364 68.375 135.788 67.765 133.194L66.7916 133.423ZM72.2119 148.744C73.3964 151.174 74.7289 153.546 76.2149 155.839L77.054 155.295C75.5908 153.038 74.2782 150.701 73.1109 148.306L72.2119 148.744ZM81.0689 162.374C82.808 164.424 84.6963 166.381 86.7388 168.225L87.4089 167.483C85.4 165.669 83.5426 163.744 81.8315 161.727L81.0689 162.374ZM93.1382 173.268C95.3317 174.771 97.6637 176.16 100.138 177.42L100.592 176.529C98.1559 175.289 95.8612 173.922 93.7035 172.443L93.1382 173.268ZM107.61 180.658C110.091 181.56 112.691 182.345 115.413 183.002L115.647 182.03C112.961 181.382 110.397 180.607 107.951 179.718L107.61 180.658ZM123.382 184.502C125.981 184.861 128.676 185.113 131.47 185.25L131.519 184.251C128.754 184.115 126.088 183.866 123.518 183.511L123.382 184.502ZM139.597 185.327C142.221 185.252 144.922 185.083 147.703 184.815L147.607 183.82C144.848 184.086 142.169 184.253 139.568 184.327L139.597 185.327ZM155.749 183.792C158.342 183.385 160.997 182.897 163.716 182.324L163.51 181.345C160.807 181.915 158.169 182.4 155.594 182.804L155.749 183.792ZM171.598 180.467C172.911 180.126 174.238 179.767 175.58 179.388L175.308 178.425C173.973 178.802 172.653 179.16 171.346 179.499L171.598 180.467Z" fill="#B2BBC0"/>
<path fill-rule="evenodd" clip-rule="evenodd" d="M243 0C275.032 0 301 25.9673 301 57.9994C301 90.0327 275.032 116 243 116C210.968 116 185 90.0327 185 57.9994C185 25.9673 210.968 0 243 0Z" fill="white"/>
<path fill-rule="evenodd" clip-rule="evenodd" d="M216.286 16.2857H202.714V2.71429C202.714 1.21464 201.498 0 200 0C198.502 0 197.286 1.21464 197.286 2.71429V16.2857H183.714C182.216 16.2857 181 17.5017 181 19C181 20.4983 182.216 21.7143 183.714 21.7143H197.286V35.2857C197.286 36.784 198.502 38 200 38C201.498 38 202.714 36.784 202.714 35.2857V21.7143H216.286C217.784 21.7143 219 20.4983 219 19C219 17.5017 217.784 16.2857 216.286 16.2857" fill="#008C73"/>
<path fill-rule="evenodd" clip-rule="evenodd" d="M244 62C244 60.896 244.896 60 246 60L279.001 60C280.105 60 281.001 60.896 281.001 62C281.001 63.104 280.105 64 279.001 64L246 64C244.896 64 244 63.104 244 62" fill="#B2B5B2"/>
<path fill-rule="evenodd" clip-rule="evenodd" d="M261 96C261 94.896 261.896 94 263 94L296.001 94C297.105 94 298.001 94.896 298.001 96C298.001 97.104 297.105 98 296.001 98L263 98C261.896 98 261 97.104 261 96" fill="#B2B5B2"/>
<path fill-rule="evenodd" clip-rule="evenodd" d="M263 26C263 24.896 263.896 24 265 24L298.001 24C299.105 24 300.001 24.896 300.001 26C300.001 27.104 299.105 28 298.001 28L265 28C263.896 28 263 27.104 263 26" fill="#B2B5B2"/>
<rect x="228" y="49" width="69" height="26" rx="6" stroke="#B2B5B2" stroke-width="4" stroke-linejoin="round"/>
<rect x="245" y="83" width="69" height="26" rx="6" stroke="#B2B5B2" stroke-width="4" stroke-linejoin="round"/>
<rect x="247" y="13" width="69" height="26" rx="6" stroke="#B2B5B2" stroke-width="4" stroke-linejoin="round"/>
</svg>
