<svg width="24" height="24" viewBox="0 0 24 24" fill="none" xmlns="http://www.w3.org/2000/svg">
<path d="M14.5507 17.9546V18.9346C14.5507 19.2293 14.312 19.468 14.0173 19.468H5.09332C4.79866 19.468 4.55999 19.2293 4.55999 18.9346L4.55732 10.0133C4.55866 9.71864 4.79599 9.47997 5.09066 9.47997H6.07332C6.21999 9.47997 6.33999 9.35997 6.33999 9.21331V7.96131C6.33999 7.81464 6.21999 7.69464 6.07332 7.69464H4.97599C4.68132 7.69464 4.44266 7.93331 4.44266 8.22797V8.82264C4.44266 9.11731 4.20532 9.35597 3.91066 9.35731H3.63732L3.30533 9.35997C3.01199 9.35997 2.77466 9.59997 2.77466 9.89331V19.064C2.77466 19.3586 3.01332 19.5973 3.30799 19.5973H3.90932C4.20399 19.5973 4.44266 19.836 4.44266 20.1306V20.72C4.44266 21.0146 4.68132 21.2533 4.97599 21.2533H14.132C14.4267 21.2533 14.6653 21.0146 14.6653 20.7213V20.1226C14.6653 19.8293 14.9027 19.592 15.1973 19.5906H15.4933L15.5053 19.5893H15.8027C16.096 19.5866 16.3333 19.348 16.3333 19.0546V17.9546C16.3333 17.808 16.2133 17.688 16.0667 17.688H14.8173C14.6707 17.688 14.5507 17.808 14.5507 17.9546Z" fill="currentColor"/>
<path d="M21.2519 14.1333V5.00531C21.2519 4.71064 21.0119 4.47197 20.7172 4.47197H20.1212C19.8266 4.47331 19.5879 4.23597 19.5866 3.94131V3.30397C19.5839 3.01064 19.3452 2.77197 19.0519 2.77197H9.89323C9.59856 2.77197 9.35989 3.01064 9.35989 3.30531V3.90264C9.35989 4.19597 9.12256 4.43464 8.82923 4.43597L8.22256 4.43864C7.92923 4.43864 7.69189 4.67864 7.69189 4.97197V14.1426C7.69189 14.4373 7.93056 14.676 8.22523 14.676H8.82656C9.12123 14.676 9.35989 14.9146 9.35989 15.2093V15.7986C9.35989 16.0933 9.59856 16.332 9.89323 16.332H19.0506C19.3452 16.332 19.5839 16.0933 19.5839 15.7986V15.2013C19.5839 14.908 19.8212 14.6693 20.1146 14.668L20.7199 14.6653C21.0132 14.6653 21.2506 14.4253 21.2506 14.132L21.2519 14.1333ZM18.9359 14.5466H10.0106C9.71589 14.5466 9.47723 14.308 9.47723 14.0133L9.47456 5.09197C9.47456 4.79731 9.71323 4.55864 10.0079 4.55864H18.9319C19.2266 4.55864 19.4652 4.79731 19.4652 5.09197L19.4679 14.0133C19.4679 14.308 19.2292 14.5466 18.9346 14.5466H18.9359Z" fill="currentColor"/>
</svg>
