<svg width="300" height="300" viewBox="0 0 300 300" fill="none" xmlns="http://www.w3.org/2000/svg">
    <g clip-path="url(#clip0_1949_15506)">
        <path d="M150.005 149.994V0C198.019 0 243.131 22.9858 271.352 61.8298L150.005 149.994Z" fill="#B0FFC8"/>
        <path d="M150.005 149.994L271.352 61.8299C299.574 100.674 307.495 150.681 292.658 196.345L150.005 149.994Z" fill="#5EDDFE"/>
        <path d="M150.005 149.994L292.658 196.345C287.794 211.314 280.604 225.425 271.352 238.158L150.005 149.994Z" fill="#00B460"/>
        <path d="M150.005 149.994L271.352 238.158C262.101 250.892 250.903 262.09 238.169 271.342L150.005 149.994Z" fill="#FF8060"/>
        <path d="M150.005 149.994L238.169 271.342C171.151 320.034 77.3488 305.177 28.657 238.158C-20.0348 171.14 -5.17811 77.3381 61.8404 28.6463C87.4666 10.0278 118.329 0 150.005 0V149.994Z" fill="#13FF7F"/>
        <path d="M29.634 187.168C28.8967 187.168 28.276 187.033 27.772 186.762C27.268 186.491 26.862 186.127 26.554 185.67C26.246 185.213 26.022 184.704 25.882 184.144C25.7513 183.584 25.686 183.01 25.686 182.422C25.686 181.33 25.84 180.383 26.148 179.58C26.456 178.768 26.8993 178.143 27.478 177.704C28.0567 177.256 28.7567 177.032 29.578 177.032C30.25 177.032 30.8193 177.167 31.286 177.438C31.762 177.699 32.1307 178.045 32.392 178.474C32.6533 178.903 32.8073 179.365 32.854 179.86H31.188C31.104 179.431 30.922 179.099 30.642 178.866C30.362 178.633 30.0027 178.516 29.564 178.516C28.9387 178.516 28.4347 178.805 28.052 179.384C27.6693 179.953 27.464 180.826 27.436 182.002C27.66 181.619 27.996 181.302 28.444 181.05C28.892 180.798 29.3913 180.672 29.942 180.672C30.4833 180.672 30.992 180.803 31.468 181.064C31.944 181.325 32.3267 181.694 32.616 182.17C32.9147 182.646 33.064 183.206 33.064 183.85C33.064 184.438 32.9193 184.984 32.63 185.488C32.35 185.992 31.9487 186.398 31.426 186.706C30.9127 187.014 30.3153 187.168 29.634 187.168ZM29.536 185.628C30.0587 185.628 30.488 185.469 30.824 185.152C31.1693 184.825 31.342 184.415 31.342 183.92C31.342 183.397 31.1693 182.977 30.824 182.66C30.4787 182.343 30.04 182.184 29.508 182.184C29.1627 182.184 28.85 182.263 28.57 182.422C28.2993 182.571 28.0847 182.777 27.926 183.038C27.7673 183.29 27.688 183.575 27.688 183.892C27.688 184.396 27.8607 184.811 28.206 185.138C28.5607 185.465 29.004 185.628 29.536 185.628ZM38.943 187.168C38.0377 187.168 37.263 186.958 36.619 186.538C35.975 186.109 35.4757 185.516 35.121 184.76C34.7757 183.995 34.603 183.108 34.603 182.1C34.603 181.101 34.7757 180.219 35.121 179.454C35.4757 178.689 35.975 178.096 36.619 177.676C37.263 177.247 38.0377 177.032 38.943 177.032C39.8484 177.032 40.623 177.247 41.267 177.676C41.911 178.096 42.4057 178.689 42.751 179.454C43.1057 180.219 43.283 181.101 43.283 182.1C43.283 183.108 43.1057 183.995 42.751 184.76C42.4057 185.516 41.911 186.109 41.267 186.538C40.623 186.958 39.8484 187.168 38.943 187.168ZM38.943 185.558C39.6804 185.558 40.2824 185.25 40.749 184.634C41.2157 184.018 41.449 183.173 41.449 182.1C41.449 181.027 41.2157 180.182 40.749 179.566C40.2824 178.95 39.6804 178.642 38.943 178.642C38.1964 178.642 37.5897 178.95 37.123 179.566C36.6657 180.182 36.437 181.027 36.437 182.1C36.437 183.173 36.6657 184.018 37.123 184.634C37.5897 185.25 38.1964 185.558 38.943 185.558ZM46.9805 182.016C46.5325 182.016 46.1265 181.918 45.7625 181.722C45.3985 181.517 45.1092 181.227 44.8945 180.854C44.6798 180.481 44.5725 180.037 44.5725 179.524C44.5725 179.011 44.6798 178.567 44.8945 178.194C45.1092 177.821 45.3985 177.536 45.7625 177.34C46.1265 177.135 46.5372 177.032 46.9945 177.032C47.4425 177.032 47.8438 177.135 48.1985 177.34C48.5625 177.536 48.8518 177.821 49.0665 178.194C49.2812 178.567 49.3885 179.011 49.3885 179.524C49.3885 180.037 49.2812 180.481 49.0665 180.854C48.8518 181.227 48.5625 181.517 48.1985 181.722C47.8345 181.918 47.4285 182.016 46.9805 182.016ZM46.4485 187L51.9785 177.2H53.7285L48.1985 187H46.4485ZM46.9805 180.77C47.2512 180.77 47.4845 180.667 47.6805 180.462C47.8765 180.247 47.9745 179.935 47.9745 179.524C47.9745 179.113 47.8765 178.801 47.6805 178.586C47.4938 178.371 47.2605 178.264 46.9805 178.264C46.7005 178.264 46.4625 178.371 46.2665 178.586C46.0798 178.801 45.9865 179.113 45.9865 179.524C45.9865 179.935 46.0798 180.247 46.2665 180.462C46.4625 180.667 46.7005 180.77 46.9805 180.77ZM53.2525 187.168C52.8045 187.168 52.3985 187.07 52.0345 186.874C51.6705 186.669 51.3812 186.379 51.1665 186.006C50.9518 185.633 50.8445 185.189 50.8445 184.676C50.8445 184.163 50.9518 183.724 51.1665 183.36C51.3812 182.987 51.6705 182.702 52.0345 182.506C52.3985 182.301 52.8092 182.198 53.2665 182.198C53.7145 182.198 54.1158 182.301 54.4705 182.506C54.8345 182.702 55.1238 182.987 55.3385 183.36C55.5532 183.724 55.6605 184.163 55.6605 184.676C55.6605 185.189 55.5532 185.633 55.3385 186.006C55.1238 186.379 54.8345 186.669 54.4705 186.874C54.1158 187.07 53.7098 187.168 53.2525 187.168ZM53.2525 185.922C53.5325 185.922 53.7658 185.819 53.9525 185.614C54.1485 185.399 54.2465 185.087 54.2465 184.676C54.2465 184.265 54.1485 183.953 53.9525 183.738C53.7658 183.523 53.5325 183.416 53.2525 183.416C52.9725 183.416 52.7345 183.523 52.5385 183.738C52.3518 183.953 52.2585 184.265 52.2585 184.676C52.2585 185.087 52.3518 185.399 52.5385 185.614C52.7345 185.819 52.9725 185.922 53.2525 185.922Z" fill="#121312"/>
        <path d="M194.016 42V34.244L192.406 34.622V33.25L194.772 32.2H195.878V42H194.016ZM201.392 42.168C200.674 42.168 200.053 42.042 199.53 41.79C199.017 41.538 198.611 41.1927 198.312 40.754C198.023 40.306 197.855 39.802 197.808 39.242H199.558C199.642 39.6433 199.848 39.9793 200.174 40.25C200.501 40.5113 200.907 40.642 201.392 40.642C201.915 40.642 202.34 40.4507 202.666 40.068C203.002 39.6853 203.17 39.2093 203.17 38.64C203.17 38.052 203.002 37.5853 202.666 37.24C202.34 36.8947 201.924 36.722 201.42 36.722C201 36.722 200.636 36.8247 200.328 37.03C200.02 37.2353 199.801 37.492 199.67 37.8H197.948L198.788 32.2H204.22V33.768H200.132L199.684 36.036C199.89 35.812 200.17 35.63 200.524 35.49C200.879 35.3407 201.276 35.266 201.714 35.266C202.414 35.266 202.998 35.4247 203.464 35.742C203.931 36.05 204.286 36.4607 204.528 36.974C204.771 37.478 204.892 38.0287 204.892 38.626C204.892 39.3073 204.743 39.914 204.444 40.446C204.155 40.978 203.744 41.398 203.212 41.706C202.69 42.014 202.083 42.168 201.392 42.168ZM208.676 37.016C208.228 37.016 207.822 36.918 207.458 36.722C207.094 36.5167 206.804 36.2273 206.59 35.854C206.375 35.4807 206.268 35.0373 206.268 34.524C206.268 34.0107 206.375 33.5673 206.59 33.194C206.804 32.8207 207.094 32.536 207.458 32.34C207.822 32.1347 208.232 32.032 208.69 32.032C209.138 32.032 209.539 32.1347 209.894 32.34C210.258 32.536 210.547 32.8207 210.762 33.194C210.976 33.5673 211.084 34.0107 211.084 34.524C211.084 35.0373 210.976 35.4807 210.762 35.854C210.547 36.2273 210.258 36.5167 209.894 36.722C209.53 36.918 209.124 37.016 208.676 37.016ZM208.144 42L213.674 32.2H215.424L209.894 42H208.144ZM208.676 35.77C208.946 35.77 209.18 35.6673 209.376 35.462C209.572 35.2473 209.67 34.9347 209.67 34.524C209.67 34.1133 209.572 33.8007 209.376 33.586C209.189 33.3713 208.956 33.264 208.676 33.264C208.396 33.264 208.158 33.3713 207.962 33.586C207.775 33.8007 207.682 34.1133 207.682 34.524C207.682 34.9347 207.775 35.2473 207.962 35.462C208.158 35.6673 208.396 35.77 208.676 35.77ZM214.948 42.168C214.5 42.168 214.094 42.07 213.73 41.874C213.366 41.6687 213.076 41.3793 212.862 41.006C212.647 40.6327 212.54 40.1893 212.54 39.676C212.54 39.1627 212.647 38.724 212.862 38.36C213.076 37.9867 213.366 37.702 213.73 37.506C214.094 37.3007 214.504 37.198 214.962 37.198C215.41 37.198 215.811 37.3007 216.166 37.506C216.53 37.702 216.819 37.9867 217.034 38.36C217.248 38.724 217.356 39.1627 217.356 39.676C217.356 40.1893 217.248 40.6327 217.034 41.006C216.819 41.3793 216.53 41.6687 216.166 41.874C215.811 42.07 215.405 42.168 214.948 42.168ZM214.948 40.922C215.228 40.922 215.461 40.8193 215.648 40.614C215.844 40.3993 215.942 40.0867 215.942 39.676C215.942 39.2653 215.844 38.9527 215.648 38.738C215.461 38.5233 215.228 38.416 214.948 38.416C214.668 38.416 214.43 38.5233 214.234 38.738C214.047 38.9527 213.954 39.2653 213.954 39.676C213.954 40.0867 214.047 40.3993 214.234 40.614C214.43 40.8193 214.668 40.922 214.948 40.922Z" fill="#121312"/>
        <path d="M259.016 140V132.244L257.406 132.622V131.25L259.772 130.2H260.878V140H259.016ZM266.392 140.168C265.674 140.168 265.053 140.042 264.53 139.79C264.017 139.538 263.611 139.193 263.312 138.754C263.023 138.306 262.855 137.802 262.808 137.242H264.558C264.642 137.643 264.848 137.979 265.174 138.25C265.501 138.511 265.907 138.642 266.392 138.642C266.915 138.642 267.34 138.451 267.666 138.068C268.002 137.685 268.17 137.209 268.17 136.64C268.17 136.052 268.002 135.585 267.666 135.24C267.34 134.895 266.924 134.722 266.42 134.722C266 134.722 265.636 134.825 265.328 135.03C265.02 135.235 264.801 135.492 264.67 135.8H262.948L263.788 130.2H269.22V131.768H265.132L264.684 134.036C264.89 133.812 265.17 133.63 265.524 133.49C265.879 133.341 266.276 133.266 266.714 133.266C267.414 133.266 267.998 133.425 268.464 133.742C268.931 134.05 269.286 134.461 269.528 134.974C269.771 135.478 269.892 136.029 269.892 136.626C269.892 137.307 269.743 137.914 269.444 138.446C269.155 138.978 268.744 139.398 268.212 139.706C267.69 140.014 267.083 140.168 266.392 140.168ZM273.676 135.016C273.228 135.016 272.822 134.918 272.458 134.722C272.094 134.517 271.804 134.227 271.59 133.854C271.375 133.481 271.268 133.037 271.268 132.524C271.268 132.011 271.375 131.567 271.59 131.194C271.804 130.821 272.094 130.536 272.458 130.34C272.822 130.135 273.232 130.032 273.69 130.032C274.138 130.032 274.539 130.135 274.894 130.34C275.258 130.536 275.547 130.821 275.762 131.194C275.976 131.567 276.084 132.011 276.084 132.524C276.084 133.037 275.976 133.481 275.762 133.854C275.547 134.227 275.258 134.517 274.894 134.722C274.53 134.918 274.124 135.016 273.676 135.016ZM273.144 140L278.674 130.2H280.424L274.894 140H273.144ZM273.676 133.77C273.946 133.77 274.18 133.667 274.376 133.462C274.572 133.247 274.67 132.935 274.67 132.524C274.67 132.113 274.572 131.801 274.376 131.586C274.189 131.371 273.956 131.264 273.676 131.264C273.396 131.264 273.158 131.371 272.962 131.586C272.775 131.801 272.682 132.113 272.682 132.524C272.682 132.935 272.775 133.247 272.962 133.462C273.158 133.667 273.396 133.77 273.676 133.77ZM279.948 140.168C279.5 140.168 279.094 140.07 278.73 139.874C278.366 139.669 278.076 139.379 277.862 139.006C277.647 138.633 277.54 138.189 277.54 137.676C277.54 137.163 277.647 136.724 277.862 136.36C278.076 135.987 278.366 135.702 278.73 135.506C279.094 135.301 279.504 135.198 279.962 135.198C280.41 135.198 280.811 135.301 281.166 135.506C281.53 135.702 281.819 135.987 282.034 136.36C282.248 136.724 282.356 137.163 282.356 137.676C282.356 138.189 282.248 138.633 282.034 139.006C281.819 139.379 281.53 139.669 281.166 139.874C280.811 140.07 280.405 140.168 279.948 140.168ZM279.948 138.922C280.228 138.922 280.461 138.819 280.648 138.614C280.844 138.399 280.942 138.087 280.942 137.676C280.942 137.265 280.844 136.953 280.648 136.738C280.461 136.523 280.228 136.416 279.948 136.416C279.668 136.416 279.43 136.523 279.234 136.738C279.047 136.953 278.954 137.265 278.954 137.676C278.954 138.087 279.047 138.399 279.234 138.614C279.43 138.819 279.668 138.922 279.948 138.922Z" fill="#121312"/>
        <path d="M255.466 211.168C254.747 211.168 254.127 211.042 253.604 210.79C253.091 210.538 252.685 210.193 252.386 209.754C252.097 209.306 251.929 208.802 251.882 208.242H253.632C253.716 208.643 253.921 208.979 254.248 209.25C254.575 209.511 254.981 209.642 255.466 209.642C255.989 209.642 256.413 209.451 256.74 209.068C257.076 208.685 257.244 208.209 257.244 207.64C257.244 207.052 257.076 206.585 256.74 206.24C256.413 205.895 255.998 205.722 255.494 205.722C255.074 205.722 254.71 205.825 254.402 206.03C254.094 206.235 253.875 206.492 253.744 206.8H252.022L252.862 201.2H258.294V202.768H254.206L253.758 205.036C253.963 204.812 254.243 204.63 254.598 204.49C254.953 204.341 255.349 204.266 255.788 204.266C256.488 204.266 257.071 204.425 257.538 204.742C258.005 205.05 258.359 205.461 258.602 205.974C258.845 206.478 258.966 207.029 258.966 207.626C258.966 208.307 258.817 208.914 258.518 209.446C258.229 209.978 257.818 210.398 257.286 210.706C256.763 211.014 256.157 211.168 255.466 211.168ZM262.75 206.016C262.302 206.016 261.896 205.918 261.532 205.722C261.168 205.517 260.878 205.227 260.664 204.854C260.449 204.481 260.342 204.037 260.342 203.524C260.342 203.011 260.449 202.567 260.664 202.194C260.878 201.821 261.168 201.536 261.532 201.34C261.896 201.135 262.306 201.032 262.764 201.032C263.212 201.032 263.613 201.135 263.968 201.34C264.332 201.536 264.621 201.821 264.836 202.194C265.05 202.567 265.158 203.011 265.158 203.524C265.158 204.037 265.05 204.481 264.836 204.854C264.621 205.227 264.332 205.517 263.968 205.722C263.604 205.918 263.198 206.016 262.75 206.016ZM262.218 211L267.748 201.2H269.498L263.968 211H262.218ZM262.75 204.77C263.02 204.77 263.254 204.667 263.45 204.462C263.646 204.247 263.744 203.935 263.744 203.524C263.744 203.113 263.646 202.801 263.45 202.586C263.263 202.371 263.03 202.264 262.75 202.264C262.47 202.264 262.232 202.371 262.036 202.586C261.849 202.801 261.756 203.113 261.756 203.524C261.756 203.935 261.849 204.247 262.036 204.462C262.232 204.667 262.47 204.77 262.75 204.77ZM269.022 211.168C268.574 211.168 268.168 211.07 267.804 210.874C267.44 210.669 267.15 210.379 266.936 210.006C266.721 209.633 266.614 209.189 266.614 208.676C266.614 208.163 266.721 207.724 266.936 207.36C267.15 206.987 267.44 206.702 267.804 206.506C268.168 206.301 268.578 206.198 269.036 206.198C269.484 206.198 269.885 206.301 270.24 206.506C270.604 206.702 270.893 206.987 271.108 207.36C271.322 207.724 271.43 208.163 271.43 208.676C271.43 209.189 271.322 209.633 271.108 210.006C270.893 210.379 270.604 210.669 270.24 210.874C269.885 211.07 269.479 211.168 269.022 211.168ZM269.022 209.922C269.302 209.922 269.535 209.819 269.722 209.614C269.918 209.399 270.016 209.087 270.016 208.676C270.016 208.265 269.918 207.953 269.722 207.738C269.535 207.523 269.302 207.416 269.022 207.416C268.742 207.416 268.504 207.523 268.308 207.738C268.121 207.953 268.028 208.265 268.028 208.676C268.028 209.087 268.121 209.399 268.308 209.614C268.504 209.819 268.742 209.922 269.022 209.922Z" fill="#121312"/>
        <path d="M235.466 245.168C234.747 245.168 234.127 245.042 233.604 244.79C233.091 244.538 232.685 244.193 232.386 243.754C232.097 243.306 231.929 242.802 231.882 242.242H233.632C233.716 242.643 233.921 242.979 234.248 243.25C234.575 243.511 234.981 243.642 235.466 243.642C235.989 243.642 236.413 243.451 236.74 243.068C237.076 242.685 237.244 242.209 237.244 241.64C237.244 241.052 237.076 240.585 236.74 240.24C236.413 239.895 235.998 239.722 235.494 239.722C235.074 239.722 234.71 239.825 234.402 240.03C234.094 240.235 233.875 240.492 233.744 240.8H232.022L232.862 235.2H238.294V236.768H234.206L233.758 239.036C233.963 238.812 234.243 238.63 234.598 238.49C234.953 238.341 235.349 238.266 235.788 238.266C236.488 238.266 237.071 238.425 237.538 238.742C238.005 239.05 238.359 239.461 238.602 239.974C238.845 240.478 238.966 241.029 238.966 241.626C238.966 242.307 238.817 242.914 238.518 243.446C238.229 243.978 237.818 244.398 237.286 244.706C236.763 245.014 236.157 245.168 235.466 245.168ZM242.75 240.016C242.302 240.016 241.896 239.918 241.532 239.722C241.168 239.517 240.878 239.227 240.664 238.854C240.449 238.481 240.342 238.037 240.342 237.524C240.342 237.011 240.449 236.567 240.664 236.194C240.878 235.821 241.168 235.536 241.532 235.34C241.896 235.135 242.306 235.032 242.764 235.032C243.212 235.032 243.613 235.135 243.968 235.34C244.332 235.536 244.621 235.821 244.836 236.194C245.05 236.567 245.158 237.011 245.158 237.524C245.158 238.037 245.05 238.481 244.836 238.854C244.621 239.227 244.332 239.517 243.968 239.722C243.604 239.918 243.198 240.016 242.75 240.016ZM242.218 245L247.748 235.2H249.498L243.968 245H242.218ZM242.75 238.77C243.02 238.77 243.254 238.667 243.45 238.462C243.646 238.247 243.744 237.935 243.744 237.524C243.744 237.113 243.646 236.801 243.45 236.586C243.263 236.371 243.03 236.264 242.75 236.264C242.47 236.264 242.232 236.371 242.036 236.586C241.849 236.801 241.756 237.113 241.756 237.524C241.756 237.935 241.849 238.247 242.036 238.462C242.232 238.667 242.47 238.77 242.75 238.77ZM249.022 245.168C248.574 245.168 248.168 245.07 247.804 244.874C247.44 244.669 247.15 244.379 246.936 244.006C246.721 243.633 246.614 243.189 246.614 242.676C246.614 242.163 246.721 241.724 246.936 241.36C247.15 240.987 247.44 240.702 247.804 240.506C248.168 240.301 248.578 240.198 249.036 240.198C249.484 240.198 249.885 240.301 250.24 240.506C250.604 240.702 250.893 240.987 251.108 241.36C251.322 241.724 251.43 242.163 251.43 242.676C251.43 243.189 251.322 243.633 251.108 244.006C250.893 244.379 250.604 244.669 250.24 244.874C249.885 245.07 249.479 245.168 249.022 245.168ZM249.022 243.922C249.302 243.922 249.535 243.819 249.722 243.614C249.918 243.399 250.016 243.087 250.016 242.676C250.016 242.265 249.918 241.953 249.722 241.738C249.535 241.523 249.302 241.416 249.022 241.416C248.742 241.416 248.504 241.523 248.308 241.738C248.121 241.953 248.028 242.265 248.028 242.676C248.028 243.087 248.121 243.399 248.308 243.614C248.504 243.819 248.742 243.922 249.022 243.922Z" fill="#121312"/>
    </g>
    <defs>
        <clipPath id="clip0_1949_15506">
            <rect width="300" height="299.999" fill="white"/>
        </clipPath>
    </defs>
</svg>
