<svg width="20" height="20" viewBox="0 0 20 20" fill="none" xmlns="http://www.w3.org/2000/svg">
<path fill-rule="evenodd" clip-rule="evenodd" d="M9.61859 2.59671C9.83166 2.48434 10.0813 2.4704 10.3034 2.55485L10.3967 2.59707L18.7309 7.00207C19.0214 7.1556 19.17 7.43918 19.1747 7.72513L19.1707 7.81155L19.1763 7.90874V15.8254C19.1763 16.2856 18.8032 16.6587 18.343 16.6587C17.9156 16.6587 17.5634 16.337 17.5153 15.9226L17.5097 15.8254L17.509 9.17382L15.8373 10.1288L15.8381 13.3302C15.8381 15.7193 13.1716 17.4968 10.0047 17.4968C6.90933 17.4968 4.29284 15.7993 4.17551 13.4921L4.1714 13.3302L4.17065 10.123L1.25382 8.45566C0.714766 8.14758 0.697339 7.39214 1.18693 7.05081L1.27859 6.99505L9.61859 2.59671ZM5.83732 11.0755L5.83807 13.3302C5.83807 14.6227 7.64908 15.8302 10.0047 15.8302C12.2885 15.8302 14.0611 14.6946 14.1664 13.4474L14.1714 13.3302L14.1707 11.0813L10.4224 13.2232C10.1982 13.3513 9.92939 13.3673 9.69406 13.2712L9.59548 13.2232L5.83732 11.0755ZM3.3979 7.76074L10.0071 4.27574L16.6121 7.76657L10.0087 11.5399L3.3979 7.76074Z" fill="currentColor"/>
</svg>
