<svg width="16" height="16" viewBox="0 0 16 16" fill="none" xmlns="http://www.w3.org/2000/svg">
<path d="M12.8 12.8V8C12.8 7.66863 13.0686 7.4 13.4 7.4C13.7314 7.4 14 7.66863 14 8V12.8C14 13.4627 13.4627 14 12.8 14H3.2C2.53726 14 2 13.4627 2 12.8V3.2C2 2.53726 2.53726 2 3.2 2H8C8.33137 2 8.6 2.26863 8.6 2.6C8.6 2.93137 8.33137 3.2 8 3.2H3.2V12.8H12.8Z" fill="currentColor"/>
<path fill-rule="evenodd" clip-rule="evenodd" d="M11.8908 3.23555H10.2934C9.95218 3.23555 9.67559 2.95896 9.67559 2.61777C9.67559 2.27659 9.95218 2 10.2934 2H13.3822C13.5528 2 13.7073 2.06915 13.8191 2.18094C13.9309 2.29274 14 2.44718 14 2.61777V5.70664C14 6.04782 13.7234 6.32441 13.3822 6.32441C13.041 6.32441 12.7645 6.04782 12.7645 5.70664V4.10921L7.0546 9.81906C6.81335 10.0603 6.4222 10.0603 6.18094 9.81906C5.93969 9.5778 5.93969 9.18665 6.18094 8.9454L11.8908 3.23555Z" fill="currentColor"/>
</svg>
