<!-- This icon is made by smalllikeart (https://www.flaticon.com/authors/smalllikeart) from www.flaticon.com -->
<svg height="480pt" viewBox="-48 0 480 480" width="480pt" xmlns="http://www.w3.org/2000/svg"><path d="m8 8h368v48h-368zm0 0" fill="#7d8d9c"/><path d="m24 56h336v64h-336zm0 0" fill="#aabece"/><path d="m112 472v-32h96v32zm0 0" fill="#aabece"/><path d="m104 88h176v208h-176zm0 0" fill="#a9d39f"/><path d="m48 80h16v16h-16zm0 0" fill="#364a5b"/><path d="m320 80h16v16h-16zm0 0" fill="#364a5b"/><path d="m256 272h-48v-16h32v-32h16zm0 0" fill="#78a36c"/><path d="m128 224h16v48h-16zm0 0" fill="#78a36c"/><path d="m208 192c0 8.835938-7.164062 16-16 16s-16-7.164062-16-16 7.164062-16 16-16 16 7.164062 16 16zm0 0" fill="#fcf05a"/><path d="m128 88h16v120h-16zm0 0" fill="#78a36c"/><path d="m240 88h16v120h-16zm0 0" fill="#78a36c"/><path d="m192 144c30.929688 0 56-25.070312 56-56h-112c0 30.929688 25.070312 56 56 56zm0 0" fill="#d9e5d6"/><path d="m80 80h224v16h-224zm0 0" fill="#364a5b"/><path d="m184 296v-40c0-8.835938-7.164062-16-16-16h-8c-8.835938 0-16 7.164062-16 16v40h-40v-104l-32 32v104l40 112h96v-88zm0 0" fill="#ffd782"/><path d="m136 296h16v40h-16zm0 0" fill="#d39c39"/><path d="m16 128h80v60.6875l-29.65625 29.65625c-1.5 1.5-2.34375 3.535156-2.34375 5.65625v104c0 .917969.160156 1.828125.472656 2.6875l39.527344 110.6875v30.625c0 4.417969 3.582031 8 8 8h96c4.417969 0 8-3.582031 8-8v-120c.003906-1.082031-.21875-2.15625-.648438-3.152344l-19.222656-44.847656h83.871094c4.417969 0 8-3.582031 8-8v-168h80v-64h16v-64h-384v64h16zm184 336h-80v-16h80zm0-32h-82.398438l-37.601562-105.382812v-99.304688l16-16v84.6875c0 4.417969 3.582031 8 8 8h32v32h16v-80c0-4.417969 3.582031-8 8-8h8c4.417969 0 8 3.582031 8 8v40c-.003906 1.082031.21875 2.15625.648438 3.152344l23.351562 54.488281zm72-144h-80v-32c0-13.253906-10.746094-24-24-24h-8c-5.921875.019531-11.625 2.246094-16 6.238281v-14.238281h-16v48h8v16h-24v-192h16v112h16v-77.808594c12.101562 13.859375 29.601562 21.808594 48 21.808594s35.898438-7.949219 48-21.808594v77.808594h16v-112h16zm-127.335938-192h94.671876c-3.886719 23.113281-23.898438 40.042969-47.335938 40.042969s-43.449219-16.929688-47.335938-40.042969zm207.335938 16h-64v-16h16v-16h-224v16h16v16h-64v-48h320zm-336-96h352v32h-352zm0 0"/><path d="m48 80h16v16h-16zm0 0"/><path d="m320 80h16v16h-16zm0 0"/><path d="m240 256h-32v16h48v-48h-16zm0 0"/><path d="m216 192c0-13.253906-10.746094-24-24-24s-24 10.746094-24 24 10.746094 24 24 24 24-10.746094 24-24zm-24 8c-4.417969 0-8-3.582031-8-8s3.582031-8 8-8 8 3.582031 8 8-3.582031 8-8 8zm0 0"/></svg>
