<svg xmlns="http://www.w3.org/2000/svg" width="24" height="24" viewBox="0 0 24 24"><g fill="none" fill-rule="evenodd"><path d="M0 0H24V24H0z"></path><path class="icon-color" fill="#999" fill-rule="nonzero" d="M12 22c5.523 0 10-4.477 10-10S17.523 2 12 2 2 6.477 2 12s4.477 10 10 10zm0-2c-4.418 0-8-3.582-8-8s3.582-8 8-8 8 3.582 8 8-3.582 8-8 8z"></path><path class="icon-color" fill="#999" fill-rule="nonzero" d="M10.442 9.134c0-.77.652-1.405 1.47-1.405.816 0 1.468.635 1.468 1.405.009.562-.134.757-.825 1.262l-.047.034c-1.172.855-1.664 1.537-1.595 2.893l-.001.197c0 .552.448 1 1 1s1-.448 1-1v-.248c-.027-.562.093-.73.774-1.226l.048-.035c1.163-.849 1.667-1.537 1.646-2.892 0-1.871-1.558-3.39-3.468-3.39-1.911 0-3.47 1.519-3.47 3.405 0 .552.448 1 1 1s1-.448 1-1zM12 15.75c.69 0 1.25.56 1.25 1.25s-.56 1.25-1.25 1.25-1.25-.56-1.25-1.25.56-1.25 1.25-1.25z"></path></g></svg>
