<svg width="24" height="24" viewBox="0 0 24 24" fill="none" xmlns="http://www.w3.org/2000/svg">
<path d="M13.3414 11.668H10.6588C10.5121 11.668 10.3921 11.788 10.3921 11.9347V14.2174C10.3921 14.364 10.5121 14.484 10.6588 14.484H10.8414C10.9881 14.484 11.1081 14.604 11.1081 14.7507V17.1067C11.1081 17.2534 11.2281 17.3734 11.3748 17.3734H12.6254C12.7721 17.3734 12.8921 17.2534 12.8921 17.1067V14.7507C12.8921 14.604 13.0121 14.484 13.1588 14.484H13.3414C13.4881 14.484 13.6081 14.364 13.6081 14.2174V11.9347C13.6081 11.788 13.4881 11.668 13.3414 11.668Z" fill="currentColor"/>
<path d="M16.3187 4.67735L14.7147 3.07335C14.5147 2.87335 14.2454 2.76135 13.9627 2.76135H10.0374C9.75472 2.76135 9.48538 2.87335 9.28538 3.07335L7.68138 4.67735C7.48138 4.87735 7.36938 5.14669 7.36938 5.42935V7.96135H9.10005V5.98135C9.10005 5.80535 9.16938 5.63735 9.29472 5.51202L10.1187 4.68802C10.2427 4.56402 10.4121 4.49335 10.5881 4.49335H13.4107C13.5867 4.49335 13.7547 4.56269 13.8801 4.68802L14.7041 5.51202C14.8281 5.63602 14.8987 5.80535 14.8987 5.98135V7.96135H16.6294V5.42935C16.6294 5.14669 16.5174 4.87735 16.3174 4.67735H16.3187Z" fill="currentColor"/>
<path d="M20.1507 19.0373V10.0373C20.1507 9.74268 19.9107 9.50402 19.616 9.50402H19.02C18.7254 9.50535 18.4867 9.26802 18.4854 8.97335V8.33602C18.4827 8.04268 18.244 7.80402 17.9507 7.80402H6.0507C5.75603 7.80402 5.51737 8.04268 5.51737 8.33735V8.93468C5.51737 9.22802 5.28003 9.46668 4.9867 9.46802L4.38003 9.47068C4.0867 9.47068 3.84937 9.71068 3.84937 10.004V19.0467C3.84937 19.3413 4.08803 19.58 4.3827 19.58H4.98403C5.2787 19.58 5.51737 19.8187 5.51737 20.1133V20.7027C5.51737 20.9973 5.75603 21.236 6.0507 21.236H17.948C18.2427 21.236 18.4814 20.9973 18.4814 20.7027V20.1053C18.4814 19.812 18.7187 19.5733 19.012 19.572L19.6174 19.5693C19.9107 19.5693 20.148 19.3293 20.148 19.036L20.1507 19.0373ZM17.8347 19.4507H6.16937C5.8747 19.4507 5.63603 19.212 5.63603 18.9173L5.63337 10.124C5.63337 9.82935 5.87203 9.59068 6.1667 9.59068H17.832C18.1267 9.59068 18.3654 9.82935 18.3654 10.124L18.368 18.9173C18.368 19.212 18.1294 19.4507 17.8347 19.4507Z" fill="currentColor"/>
</svg>
