<svg width="125" height="110" viewBox="0 0 125 110" fill="none" xmlns="http://www.w3.org/2000/svg">
<path d="M64.284 0.0114899C64.2832 0.0122242 64.2838 0.0134823 64.2848 0.0134823C71.4864 0.0134792 78.688 0.00152087 85.8896 0.0174673C90.4651 0.0294287 92.6809 2.21437 92.7208 6.73976C92.7488 9.70618 92.7488 12.6726 92.7208 15.639C92.6769 20.0966 90.5609 22.2218 86.0573 22.2297C72.7502 22.2576 59.443 22.2377 46.1319 22.2417C40.3667 22.2417 38.4263 24.2034 38.4183 30.0086C38.4143 34.3825 38.4542 38.7524 38.4023 43.1263C38.3544 47.0815 36.2504 49.2106 32.3097 49.2864C28.944 49.3502 25.5783 49.3621 22.2126 49.2824C18.4995 49.1947 16.2278 46.9379 16.1799 43.2299C16.108 37.6081 16.116 31.9862 16.1799 26.3684C16.2198 22.4809 18.6073 20.2122 22.5719 20.1524C24.9195 20.1166 27.2671 20.1684 29.6187 20.1365C33.6831 20.0807 35.8751 17.9316 35.9389 13.9246C35.9789 11.4286 35.907 8.92869 35.9629 6.42876C36.0587 2.3619 38.3784 0.045381 42.4468 0.0214583C49.7242 -0.0184078 57.0057 0.0094902 64.2831 0.00949741C64.2842 0.00949741 64.2847 0.0107555 64.284 0.0114899Z" fill="url(#paint0_linear_2645_3991)"/>
<path d="M66.3324 98.6674C66.3334 98.6679 66.3331 98.6694 66.332 98.6694C59.0438 98.6694 51.7597 98.6854 44.4716 98.6654C40.1553 98.6534 37.9573 96.4653 37.9213 92.1888C37.8973 89.1381 37.8973 86.0875 37.9213 83.0409C37.9533 78.7843 40.1953 76.5003 44.4516 76.4963C57.9318 76.4724 71.412 76.4924 84.8882 76.4844C90.2675 76.4844 92.2537 74.4959 92.2577 69.1293C92.2617 64.6731 92.2297 60.213 92.2697 55.7568C92.3057 51.64 94.5797 49.4 98.7081 49.364C101.921 49.3361 105.134 49.3241 108.348 49.364C112.184 49.4159 114.458 51.6879 114.486 55.5412C114.526 61.1713 114.526 66.8014 114.486 72.4315C114.458 76.2608 112.232 78.4928 108.336 78.6126C105.83 78.6885 103.32 78.5847 100.814 78.6566C96.9456 78.7684 94.7835 81.0004 94.7276 84.8976C94.6916 87.4771 94.7555 90.0605 94.7036 92.64C94.6276 96.3694 92.3896 98.6295 88.6649 98.6534C81.2209 98.6973 73.7769 98.6654 66.3329 98.6654C66.3318 98.6654 66.3314 98.6669 66.3324 98.6674Z" fill="url(#paint1_linear_2645_3991)"/>
<path d="M76.5838 49.3495C76.5851 49.3508 76.5858 49.3525 76.5858 49.3544C76.5859 51.0846 76.654 52.8229 76.5738 54.5492C76.4092 58.1042 74.1128 60.4795 70.596 60.5842C67.1394 60.6889 63.6748 60.6849 60.2142 60.5882C56.585 60.4876 54.1682 58.0438 54.0879 54.4405C54.0117 51.0545 54.0157 47.6646 54.0879 44.2787C54.1682 40.6915 56.6091 38.1953 60.1982 38.0906C63.6548 37.99 67.1234 37.986 70.58 38.0987C74.0606 38.2114 76.3971 40.6351 76.5657 44.1499C76.65 45.8761 76.5819 47.6144 76.5818 49.3447C76.5818 49.3465 76.5825 49.3482 76.5838 49.3495Z" fill="url(#paint2_linear_2645_3991)"/>
<path d="M124.987 5.26261C124.988 5.26321 124.988 5.26402 124.988 5.26487C124.988 6.0682 125.02 6.87527 124.982 7.67673C124.906 9.32727 123.84 10.4301 122.207 10.4787C120.602 10.5273 118.994 10.5255 117.387 10.4806C115.702 10.4339 114.58 9.29924 114.542 7.62627C114.507 6.05424 114.509 4.48034 114.542 2.90831C114.58 1.24282 115.713 0.083885 117.379 0.0352848C118.984 -0.0114462 120.595 -0.0133146 122.199 0.0390241C123.816 0.0913628 124.9 1.21664 124.979 2.84849C125.018 3.64995 124.986 4.45702 124.986 5.26036C124.986 5.2612 124.986 5.26201 124.987 5.26261Z" fill="url(#paint3_linear_2645_3991)"/>
<path d="M16.1083 101.92C16.1092 101.921 16.1097 101.922 16.1097 101.923C16.1098 103.159 16.1584 104.401 16.1011 105.634C15.9835 108.173 14.3433 109.87 11.8313 109.945C9.36229 110.019 6.88757 110.016 4.41572 109.947C1.82342 109.876 0.0971465 108.13 0.0397949 105.556C-0.0146891 103.138 -0.0118215 100.716 0.0397949 98.2978C0.0971465 95.7355 1.84064 93.9525 4.40425 93.8778C6.87324 93.8059 9.35082 93.803 11.8198 93.8835C14.306 93.964 15.9749 95.6952 16.0954 98.2058C16.1556 99.4388 16.1069 100.68 16.1068 101.916C16.1068 101.918 16.1074 101.919 16.1083 101.92Z" fill="url(#paint4_linear_2645_3991)"/>
<defs>
<linearGradient id="paint0_linear_2645_3991" x1="16.7569" y1="49.136" x2="70.0424" y2="-37.5329" gradientUnits="userSpaceOnUse">
<stop stop-color="#12FF80"/>
<stop offset="1" stop-color="#5FDDFF"/>
</linearGradient>
<linearGradient id="paint1_linear_2645_3991" x1="38.5313" y1="98.4744" x2="91.8168" y2="11.8054" gradientUnits="userSpaceOnUse">
<stop stop-color="#12FF80"/>
<stop offset="1" stop-color="#5FDDFF"/>
</linearGradient>
<linearGradient id="paint2_linear_2645_3991" x1="54.2173" y1="60.5689" x2="81.6016" y2="31.9691" gradientUnits="userSpaceOnUse">
<stop stop-color="#12FF80"/>
<stop offset="1" stop-color="#5FDDFF"/>
</linearGradient>
<linearGradient id="paint3_linear_2645_3991" x1="114.603" y1="10.4716" x2="127.317" y2="-2.80684" gradientUnits="userSpaceOnUse">
<stop stop-color="#12FF80"/>
<stop offset="1" stop-color="#5FDDFF"/>
</linearGradient>
<linearGradient id="paint4_linear_2645_3991" x1="0.132205" y1="109.934" x2="19.6924" y2="89.5053" gradientUnits="userSpaceOnUse">
<stop stop-color="#12FF80"/>
<stop offset="1" stop-color="#5FDDFF"/>
</linearGradient>
</defs>
</svg>
