<svg width="76" height="48" viewBox="0 0 76 48" fill="none" xmlns="http://www.w3.org/2000/svg">
<path d="M51.6653 28.2464L42.577 37.3681C41.8071 38.1408 41.8078 39.397 42.5785 40.1688L49.5234 47.1237C50.7071 48.2921 52.6422 48.2921 53.8259 47.1237L75.1123 26.114C76.2959 24.9458 76.2959 23.0357 75.1123 21.8674L53.8259 0.876182C52.6422 -0.292061 50.7071 -0.292061 49.5234 0.876182L42.5785 7.83117C41.8078 8.60303 41.8071 9.85921 42.577 10.6319L51.6653 19.7536C54.0324 22.09 54.0324 25.9099 51.6653 28.2464Z" fill="#0A6E5C"/>
<path d="M24.3347 28.2464L33.423 37.3681C34.1929 38.1408 34.1922 39.397 33.4215 40.1688L26.4766 47.1237C25.2929 48.2921 23.3578 48.2921 22.1741 47.1237L0.887717 26.114C-0.295906 24.9458 -0.295906 23.0357 0.887717 21.8674L22.1741 0.876182C23.3578 -0.292061 25.2929 -0.292061 26.4766 0.876182L33.4215 7.83117C34.1922 8.60303 34.1929 9.85921 33.423 10.6319L24.3347 19.7536C21.9676 22.09 21.9676 25.9099 24.3347 28.2464Z" fill="#21BF73"/>
<path d="M26.7189 25.7356C25.7604 24.777 25.7604 23.223 26.7189 22.2644L36.2644 12.7189C37.223 11.7604 38.777 11.7604 39.7356 12.7189L49.2811 22.2644C50.2396 23.223 50.2396 24.777 49.2811 25.7356L39.7356 35.2811C38.777 36.2396 37.223 36.2396 36.2644 35.2811L26.7189 25.7356Z" fill="#21BF73"/>
</svg>
