<svg width="176" height="117" viewBox="0 0 176 117" fill="none" xmlns="http://www.w3.org/2000/svg">
<path d="M175.154 110.769C175.42 110.694 175.574 110.418 175.499 110.152C175.424 109.887 175.148 109.732 174.882 109.807L175.154 110.769ZM2.60834 24.5178C2.35502 24.4079 2.06055 24.5241 1.95061 24.7774L0.159115 28.9054C0.0491812 29.1587 0.165414 29.4532 0.41873 29.5632C0.672045 29.6731 0.966519 29.5569 1.07645 29.3035L2.66889 25.6342L6.33825 27.2266C6.59156 27.3366 6.88603 27.2203 6.99597 26.967C7.1059 26.7137 6.98967 26.4192 6.73635 26.3093L2.60834 24.5178ZM1.9442 25.16C2.42519 26.3786 2.9426 27.5793 3.49454 28.761L4.40059 28.3379C3.85714 27.1743 3.34779 25.9923 2.87436 24.7929L1.9442 25.16ZM7.22466 35.6489C8.60309 37.873 10.1067 40.0127 11.7198 42.0601L12.5053 41.4412C10.9148 39.4225 9.43284 37.3136 8.07466 35.1221L7.22466 35.6489ZM16.8909 47.9366C18.7225 49.8056 20.6498 51.5732 22.6569 53.2315L23.2938 52.4607C21.3133 50.8243 19.4119 49.0803 17.6052 47.2367L16.8909 47.9366ZM28.9422 57.8978C31.1268 59.3502 33.3776 60.6819 35.6781 61.8847L36.1415 60.9985C33.8721 59.812 31.6515 58.4981 29.4958 57.065L28.9422 57.8978ZM42.7995 65.132C45.2517 66.0918 47.7392 66.9065 50.2441 67.5667L50.499 66.5997C48.0323 65.9496 45.5813 65.147 43.164 64.2008L42.7995 65.132ZM57.9319 69.0938C60.5476 69.4426 63.1627 69.6153 65.757 69.6014L65.7517 68.6014C63.2052 68.6151 60.6361 68.4456 58.0641 68.1026L57.9319 69.0938ZM73.5776 68.9706C76.1694 68.5573 78.718 67.9373 81.2015 67.0994L80.8819 66.1519C78.4532 66.9713 75.959 67.5783 73.4201 67.9831L73.5776 68.9706ZM88.3929 63.9441C90.6547 62.7009 92.834 61.2428 94.9108 59.5602L94.2813 58.7832C92.251 60.4281 90.1212 61.853 87.9112 63.0678L88.3929 63.9441ZM100.574 54.105C102.241 52.206 103.811 50.1203 105.268 47.8414L104.426 47.3026C102.995 49.5402 101.455 51.5853 99.8222 53.4452L100.574 54.105ZM109.036 40.9716C109.582 39.8035 110.104 38.5965 110.601 37.3501L109.672 36.98C109.182 38.2087 108.668 39.3977 108.13 40.5478L109.036 40.9716ZM110.601 37.3501C111.118 36.053 111.547 34.7639 111.893 33.4873L110.928 33.2253C110.592 34.4647 110.175 35.7177 109.672 36.98L110.601 37.3501ZM113.034 25.4567C113.068 22.6226 112.704 19.9157 112.009 17.3963L111.045 17.6621C111.715 20.0909 112.067 22.7043 112.034 25.4448L113.034 25.4567ZM108.695 9.97258C107.161 7.6079 105.284 5.58035 103.17 3.98556L102.568 4.78385C104.584 6.30495 106.383 8.24505 107.857 10.5168L108.695 9.97258ZM95.7967 0.492533C93.1642 -0.110069 90.3985 -0.115301 87.631 0.5873L87.877 1.55656C90.4861 0.89419 93.0909 0.899001 95.5736 1.46732L95.7967 0.492533ZM80.3331 4.22133C78.3745 5.72715 76.4838 7.66388 74.7098 10.0701L75.5147 10.6635C77.2395 8.32401 79.0661 6.45682 80.9426 5.01412L80.3331 4.22133ZM70.5648 17.0471C70.0023 18.2147 69.4603 19.4489 68.9412 20.7518L69.8702 21.1219C70.3811 19.8396 70.9138 18.6268 71.4657 17.4811L70.5648 17.0471ZM68.9412 20.7518C68.4453 21.9966 67.9866 23.2775 67.5662 24.5903L68.5185 24.8952C68.9321 23.6037 69.3831 22.3445 69.8702 21.1219L68.9412 20.7518ZM65.5748 32.4828C65.0789 35.0992 64.7204 37.7964 64.5061 40.5474L65.5031 40.625C65.7146 37.9096 66.0684 35.2487 66.5573 32.669L65.5748 32.4828ZM64.2967 48.6809C64.3655 51.3678 64.5706 54.0804 64.9182 56.7957L65.9102 56.6687C65.5669 53.9874 65.3643 51.3087 65.2964 48.6553L64.2967 48.6809ZM66.366 64.8045C66.984 67.4332 67.7432 70.0433 68.6493 72.6135L69.5924 72.281C68.6986 69.7458 67.9495 67.1703 67.3395 64.5756L66.366 64.8045ZM71.7864 80.1255C72.9708 82.5563 74.3033 84.9281 75.7894 87.2205L76.6285 86.6765C75.1653 84.4194 73.8526 82.083 72.6854 79.6874L71.7864 80.1255ZM80.6434 93.7559C82.3824 95.806 84.2707 97.7624 86.3132 99.6066L86.9834 98.8644C84.9745 97.0506 83.117 95.1261 81.406 93.109L80.6434 93.7559ZM92.7127 104.65C94.9062 106.153 97.2382 107.542 99.7125 108.802L100.166 107.91C97.7304 106.67 95.4357 105.304 93.278 103.825L92.7127 104.65ZM107.184 112.04C109.666 112.942 112.266 113.727 114.987 114.384L115.222 113.412C112.536 112.763 109.971 111.989 107.526 111.1L107.184 112.04ZM122.956 115.884C125.555 116.243 128.251 116.495 131.045 116.632L131.094 115.633C128.328 115.497 125.662 115.248 123.093 114.893L122.956 115.884ZM139.171 116.709C141.795 116.634 144.497 116.465 147.277 116.197L147.181 115.202C144.422 115.468 141.743 115.635 139.143 115.709L139.171 116.709ZM155.324 115.173C157.916 114.767 160.572 114.279 163.291 113.705L163.084 112.727C160.382 113.297 157.743 113.782 155.169 114.186L155.324 115.173ZM171.172 111.849C172.486 111.508 173.813 111.149 175.154 110.769L174.882 109.807C173.548 110.184 172.227 110.542 170.921 110.881L171.172 111.849Z" fill="#A1A3A7"/>
</svg>
