<svg width="176" height="118" viewBox="0 0 176 118" fill="none" xmlns="http://www.w3.org/2000/svg">
<path d="M175.58 111.388C175.845 111.313 176 111.036 175.925 110.771C175.85 110.505 175.574 110.35 175.308 110.425L175.58 111.388ZM3.03387 25.136C2.78056 25.026 2.48608 25.1423 2.37615 25.3956L0.584652 29.5236C0.474718 29.7769 0.590951 30.0714 0.844267 30.1813C1.09758 30.2913 1.39206 30.175 1.50199 29.9217L3.09443 26.2524L6.76378 27.8448C7.0171 27.9547 7.31157 27.8385 7.42151 27.5852C7.53144 27.3319 7.41521 27.0374 7.16189 26.9275L3.03387 25.136ZM2.36974 25.7782C2.85072 26.9968 3.36813 28.1974 3.92007 29.3792L4.82613 28.956C4.28268 27.7924 3.77333 26.6105 3.2999 25.4111L2.36974 25.7782ZM7.6502 36.2671C9.02862 38.4912 10.5322 40.6308 12.1454 42.6783L12.9308 42.0594C11.3403 40.0407 9.85838 37.9318 8.5002 35.7403L7.6502 36.2671ZM17.3165 48.5548C19.1481 50.4237 21.0753 52.1914 23.0824 53.8497L23.7193 53.0788C21.7389 51.4425 19.8375 49.6985 18.0307 47.8549L17.3165 48.5548ZM29.3677 58.516C31.5523 59.9683 33.8031 61.3001 36.1037 62.5028L36.567 61.6167C34.2977 60.4302 32.077 59.1163 29.9213 57.6832L29.3677 58.516ZM43.225 65.7502C45.6772 66.71 48.1647 67.5246 50.6696 68.1849L50.9245 67.2179C48.4578 66.5677 46.0069 65.7652 43.5895 64.819L43.225 65.7502ZM58.3574 69.712C60.9731 70.0608 63.5882 70.2335 66.1826 70.2196L66.1772 69.2196C63.6308 69.2332 61.0616 69.0638 58.4896 68.7208L58.3574 69.712ZM74.0031 69.5888C76.5949 69.1755 79.1435 68.5555 81.6271 67.7176L81.3074 66.7701C78.8787 67.5894 76.3845 68.1964 73.8457 68.6013L74.0031 69.5888ZM88.8184 64.5623C91.0803 63.319 93.2596 61.861 95.3364 60.1783L94.7069 59.4013C92.6765 61.0463 90.5468 62.4712 88.3367 63.6859L88.8184 64.5623ZM100.999 54.7232C102.667 52.8241 104.236 50.7385 105.694 48.4595L104.851 47.9207C103.42 50.1584 101.881 52.2034 100.248 54.0633L100.999 54.7232ZM109.461 41.5897C110.008 40.4216 110.53 39.2147 111.026 37.9683L110.097 37.5982C109.608 38.8269 109.093 40.0159 108.555 41.1659L109.461 41.5897ZM111.026 37.9683C111.543 36.6712 111.972 35.382 112.319 34.1055L111.354 33.8435C111.017 35.0828 110.6 36.3359 110.097 37.5982L111.026 37.9683ZM113.46 26.0749C113.494 23.2408 113.129 20.5339 112.435 18.0145L111.471 18.2802C112.14 20.709 112.493 23.3225 112.46 26.0629L113.46 26.0749ZM109.121 10.5907C107.587 8.22606 105.71 6.19851 103.596 4.60372L102.994 5.40201C105.01 6.92312 106.808 8.86322 108.282 11.135L109.121 10.5907ZM96.2222 1.1107C93.5898 0.508095 90.8241 0.502863 88.0565 1.20546L88.3026 2.17472C90.9116 1.51235 93.5164 1.51717 95.9991 2.08548L96.2222 1.1107ZM80.7587 4.83949C78.8 6.34532 76.9093 8.28204 75.1353 10.6883L75.9403 11.2817C77.665 8.94218 79.4916 7.07498 81.3682 5.63228L80.7587 4.83949ZM70.9904 17.6652C70.4278 18.8329 69.8859 20.0671 69.3668 21.3699L70.2958 21.7401C70.8066 20.4578 71.3393 19.2449 71.8913 18.0992L70.9904 17.6652ZM69.3668 21.3699C68.8708 22.6147 68.4121 23.8957 67.9917 25.2084L68.9441 25.5134C69.3577 24.2219 69.8086 22.9627 70.2958 21.7401L69.3668 21.3699ZM66.0003 33.101C65.5045 35.7174 65.1459 38.4145 64.9317 41.1656L65.9287 41.2432C66.1401 38.5277 66.4939 35.8668 66.9828 33.2872L66.0003 33.101ZM64.7222 49.2991C64.7911 51.986 64.9962 54.6986 65.3438 57.4138L66.3357 57.2868C65.9924 54.6056 65.7899 51.9268 65.7219 49.2734L64.7222 49.2991ZM66.7916 65.4226C67.4096 68.0513 68.1687 70.6614 69.0749 73.2316L70.018 72.8991C69.1242 70.3639 68.375 67.7885 67.765 65.1938L66.7916 65.4226ZM72.2119 80.7436C73.3964 83.1744 74.7289 85.5462 76.2149 87.8386L77.054 87.2947C75.5908 85.0375 74.2782 82.7012 73.1109 80.3056L72.2119 80.7436ZM81.0689 94.374C82.808 96.4242 84.6963 98.3806 86.7388 100.225L87.4089 99.4825C85.4 97.6687 83.5426 95.7443 81.8315 93.7272L81.0689 94.374ZM93.1382 105.268C95.3317 106.771 97.6637 108.16 100.138 109.42L100.592 108.529C98.1559 107.289 95.8612 105.922 93.7035 104.443L93.1382 105.268ZM107.61 112.658C110.091 113.56 112.691 114.345 115.413 115.002L115.647 114.03C112.961 113.382 110.397 112.607 107.951 111.718L107.61 112.658ZM123.382 116.502C125.981 116.861 128.676 117.113 131.47 117.25L131.519 116.251C128.754 116.115 126.088 115.866 123.518 115.511L123.382 116.502ZM139.597 117.327C142.221 117.252 144.922 117.083 147.703 116.815L147.607 115.82C144.848 116.086 142.169 116.253 139.568 116.327L139.597 117.327ZM155.749 115.792C158.342 115.385 160.997 114.897 163.716 114.324L163.51 113.345C160.807 113.915 158.169 114.4 155.594 114.804L155.749 115.792ZM171.598 112.467C172.911 112.126 174.238 111.767 175.58 111.388L175.308 110.425C173.973 110.802 172.653 111.16 171.346 111.499L171.598 112.467Z" fill="#B2BBC0"/>
</svg>
