<svg width="150" height="133" viewBox="0 0 150 133" fill="none" xmlns="http://www.w3.org/2000/svg">
<path fill-rule="evenodd" clip-rule="evenodd" d="M75 17C107.032 17 133 42.9673 133 74.9994C133 107.033 107.032 133 75 133C42.9676 133 17 107.033 17 74.9994C17 42.9673 42.9676 17 75 17Z" fill="white"/>
<path fill-rule="evenodd" clip-rule="evenodd" d="M76 79C76 77.896 76.896 77 78 77L111.001 77C112.105 77 113.001 77.896 113.001 79C113.001 80.104 112.105 81 111.001 81L78 81C76.896 81 76 80.104 76 79" fill="#B2B5B2"/>
<path fill-rule="evenodd" clip-rule="evenodd" d="M93 113C93 111.896 93.896 111 95 111L128.001 111C129.105 111 130.001 111.896 130.001 113C130.001 114.104 129.105 115 128.001 115L95 115C93.896 115 93 114.104 93 113" fill="#B2B5B2"/>
<path fill-rule="evenodd" clip-rule="evenodd" d="M95 43C95 41.896 95.896 41 97 41L130.001 41C131.105 41 132.001 41.896 132.001 43C132.001 44.104 131.105 45 130.001 45L97 45C95.896 45 95 44.104 95 43" fill="#B2B5B2"/>
<rect x="60" y="66" width="69" height="26" rx="6" stroke="#B2B5B2" stroke-width="4" stroke-linejoin="round"/>
<rect x="77" y="100" width="69" height="26" rx="6" stroke="#B2B5B2" stroke-width="4" stroke-linejoin="round"/>
<rect x="79" y="30" width="69" height="26" rx="6" stroke="#B2B5B2" stroke-width="4" stroke-linejoin="round"/>
<path fill-rule="evenodd" clip-rule="evenodd" d="M20.5714 15C20.1278 15 19.7188 15.1721 19.4302 15.4527C19.1444 15.7305 19 16.0891 19 16.4444V46.2642L30.2888 38.4248C31.3177 37.7103 32.6823 37.7103 33.7112 38.4248L45 46.2642V16.4444C45 16.0891 44.8556 15.7306 44.5698 15.4527C44.2812 15.1721 43.8722 15 43.4286 15H20.5714ZM15.2477 11.1508C16.6737 9.76438 18.5902 9 20.5714 9H43.4286C45.4098 9 47.3263 9.76438 48.7523 11.1508C50.1812 12.5399 51 14.4423 51 16.4444V52C51 53.1166 50.3798 54.1408 49.3904 54.6583C48.401 55.1759 47.206 55.101 46.2888 54.4641L32 44.5413L17.7112 54.4641C16.794 55.101 15.599 55.1759 14.6096 54.6583C13.6202 54.1408 13 53.1166 13 52V16.4444C13 14.4423 13.8188 12.5399 15.2477 11.1508Z" fill="#008C73"/>
</svg>
