<svg width="160" height="160" viewBox="0 0 160 160" fill="none" xmlns="http://www.w3.org/2000/svg">
<path d="M79.8001 97.45C103.245 97.45 122.25 78.4445 122.25 55C122.25 31.5556 103.245 12.55 79.8001 12.55C56.3556 12.55 37.3501 31.5556 37.3501 55C37.3501 78.4445 56.3556 97.45 79.8001 97.45Z" fill="#2F754F"/>
<path d="M145.78 116.08C145.73 114.16 144.73 112.31 142.95 111.28L101.05 87.09C99.99 86.48 98.81 86.25 97.68 86.36C96.55 86.26 95.37 86.48 94.31 87.09L53.64 110.57C51.54 111.78 50.51 114.13 50.87 116.4C50.92 118.32 51.92 120.17 53.7 121.2L95.6 145.39C96.66 146 97.84 146.23 98.97 146.12C100.1 146.22 101.28 146 102.34 145.39L143.01 121.91C145.11 120.7 146.14 118.35 145.78 116.08Z" fill="#121312"/>
<path d="M98.4201 146.8C97.3101 146.8 96.2301 146.51 95.2601 145.96L53.3601 121.77C51.4401 120.66 50.2601 118.66 50.2001 116.42C49.8001 113.88 51.0101 111.33 53.3001 110.01L93.9701 86.5301C95.0901 85.8801 96.3701 85.6001 97.6701 85.7101C98.9701 85.6001 100.25 85.8801 101.37 86.5301L143.27 110.72C145.18 111.82 146.36 113.8 146.43 116.03C146.82 118.64 145.61 121.17 143.34 122.48L102.67 145.96C101.55 146.61 100.28 146.89 98.9701 146.78C98.7901 146.8 98.6101 146.8 98.4301 146.8H98.4201ZM97.1301 86.9801C96.2501 86.9801 95.3901 87.2101 94.6201 87.6501L53.9501 111.13C52.1301 112.18 51.1701 114.21 51.5001 116.29C51.5501 118.16 52.4901 119.75 54.0201 120.63L95.9201 144.82C96.8201 145.34 97.8501 145.57 98.9101 145.47H98.9701H99.0301C100.08 145.57 101.11 145.34 102.02 144.82L142.69 121.34C144.51 120.29 145.47 118.26 145.14 116.18V116.1C145.09 114.32 144.15 112.73 142.62 111.85L100.72 87.6601C99.8201 87.1401 98.7901 86.9201 97.7301 87.0101H97.6701H97.6101C97.4501 86.9901 97.2901 86.9901 97.1301 86.9901V86.9801Z" fill="#636669"/>
<path d="M145.78 101.19C145.73 99.2699 144.73 97.4199 142.95 96.3899L101.05 72.1999C99.99 71.5899 98.81 71.3599 97.68 71.4699C96.55 71.3699 95.37 71.5899 94.31 72.1999L53.64 95.6799C51.54 96.8899 50.51 99.2399 50.87 101.51C50.92 103.43 51.92 105.28 53.7 106.31L95.6 130.5C96.66 131.11 97.84 131.34 98.97 131.23C100.1 131.33 101.28 131.11 102.34 130.5L143.01 107.02C145.11 105.81 146.14 103.46 145.78 101.19Z" fill="#121312"/>
<path d="M98.4201 131.91C97.3101 131.91 96.2301 131.62 95.2601 131.07L53.3601 106.88C51.4401 105.77 50.2601 103.77 50.2001 101.53C49.8001 98.99 51.0101 96.44 53.3001 95.12L93.9701 71.64C95.0901 70.99 96.3701 70.71 97.6701 70.82C98.9701 70.71 100.25 70.99 101.37 71.64L143.27 95.83C145.18 96.93 146.36 98.91 146.43 101.14C146.82 103.75 145.61 106.28 143.34 107.59L102.67 131.07C101.55 131.72 100.28 132 98.9701 131.89C98.7901 131.91 98.6101 131.91 98.4301 131.91H98.4201ZM97.1301 72.09C96.2501 72.09 95.3901 72.32 94.6201 72.76L53.9501 96.24C52.1301 97.29 51.1701 99.32 51.5001 101.4C51.5501 103.27 52.4901 104.86 54.0201 105.74L95.9201 129.93C96.8201 130.45 97.8501 130.67 98.9101 130.58H98.9701H99.0301C100.08 130.68 101.11 130.45 102.02 129.93L142.69 106.45C144.51 105.4 145.47 103.37 145.14 101.29V101.21C145.09 99.43 144.15 97.84 142.62 96.96L100.72 72.77C99.8201 72.25 98.7901 72.03 97.7301 72.12H97.6701H97.6101C97.4501 72.1 97.2901 72.1 97.1301 72.1V72.09Z" fill="#636669"/>
<path d="M145.78 84.8C145.73 82.88 144.73 81.03 142.95 80L101.05 55.81C99.99 55.2 98.81 54.97 97.68 55.08C96.55 54.98 95.37 55.2 94.31 55.81L53.64 79.29C51.54 80.5 50.51 82.85 50.87 85.12C50.92 87.04 51.92 88.89 53.7 89.92L95.6 114.11C96.66 114.72 97.84 114.95 98.97 114.84C100.1 114.94 101.28 114.72 102.34 114.11L143.01 90.63C145.11 89.42 146.14 87.07 145.78 84.8Z" fill="#121312"/>
<path d="M98.4201 115.52C97.3101 115.52 96.2301 115.23 95.2601 114.68L53.3601 90.4901C51.4401 89.3801 50.2601 87.3801 50.2001 85.1401C49.8001 82.6001 51.0101 80.0501 53.3001 78.7301L93.9701 55.2501C95.0901 54.6101 96.3701 54.3201 97.6701 54.4301C98.9701 54.3201 100.25 54.6001 101.37 55.2501L143.27 79.4401C145.18 80.5401 146.36 82.5201 146.43 84.7501C146.82 87.3601 145.61 89.8901 143.34 91.2001L102.67 114.68C101.55 115.33 100.28 115.61 98.9701 115.5C98.7901 115.52 98.6101 115.52 98.4301 115.52H98.4201ZM97.1301 55.7001C96.2501 55.7001 95.3901 55.9301 94.6201 56.3701L53.9501 79.8501C52.1301 80.9001 51.1701 82.9301 51.5001 85.0101C51.5501 86.8801 52.4901 88.4701 54.0201 89.3501L95.9201 113.54C96.8201 114.06 97.8501 114.29 98.9101 114.19H98.9701H99.0301C100.08 114.29 101.11 114.06 102.02 113.54L142.69 90.0601C144.51 89.0101 145.47 86.9801 145.14 84.9001V84.8201C145.09 83.0401 144.15 81.4501 142.62 80.5701L100.72 56.3801C99.8201 55.8601 98.7901 55.6401 97.7301 55.7301H97.6701H97.6101C97.4501 55.7101 97.2901 55.7101 97.1301 55.7101V55.7001Z" fill="#636669"/>
<path d="M47.02 94.9599C64.7097 94.9599 79.05 80.6196 79.05 62.9299C79.05 45.2402 64.7097 30.8999 47.02 30.8999C29.3303 30.8999 14.99 45.2402 14.99 62.9299C14.99 80.6196 29.3303 94.9599 47.02 94.9599Z" fill="#121312"/>
<path d="M50.105 65.505L49.505 65.505L49.505 66.105L49.505 75.5084C49.505 76.9081 48.3703 78.0428 46.9706 78.0428C45.5708 78.0428 44.4361 76.9081 44.4361 75.5084L44.4361 66.105L44.4361 65.505L43.8361 65.505L34.4328 65.505C33.0331 65.505 31.8983 64.3703 31.8983 62.9706C31.8983 61.5708 33.0331 60.4361 34.4328 60.4361L43.8361 60.4361L44.4361 60.4361L44.4361 59.8361L44.4361 50.4328C44.4361 49.033 45.5708 47.8983 46.9706 47.8983C48.3703 47.8983 49.505 49.033 49.505 50.4328L49.505 59.8361L49.505 60.4361L50.105 60.4361L59.5084 60.4361C60.9081 60.4361 62.0428 61.5708 62.0428 62.9706C62.0428 64.3703 60.9081 65.505 59.5084 65.505L50.105 65.505Z" stroke="#636669" stroke-width="1.2"/>
<path d="M47.2401 95.6101C46.8801 95.6101 46.5901 95.3201 46.5901 94.9601C46.5901 94.6001 46.8801 94.3101 47.2401 94.3001C48.8801 94.2901 50.5201 94.1501 52.1301 93.8901C52.4801 93.8301 52.8201 94.0701 52.8801 94.4301C52.9401 94.7801 52.7001 95.1201 52.3401 95.1801C50.6701 95.4501 48.9601 95.6001 47.2501 95.6101H47.2401ZM43.2401 95.3901C43.2401 95.3901 43.1901 95.3901 43.1601 95.3901C41.4701 95.1901 39.7801 94.8601 38.1501 94.4001C37.8001 94.3001 37.6001 93.9401 37.7001 93.6001C37.8001 93.2501 38.1601 93.0501 38.5001 93.1501C40.0701 93.5901 41.6901 93.9101 43.3101 94.1001C43.6701 94.1401 43.9201 94.4701 43.8801 94.8201C43.8401 95.1501 43.5601 95.4001 43.2301 95.4001L43.2401 95.3901ZM56.1301 94.3001C55.8501 94.3001 55.5901 94.1201 55.5101 93.8301C55.4101 93.4801 55.6001 93.1201 55.9501 93.0201C57.5101 92.5601 59.0501 91.9601 60.5301 91.2601C60.8501 91.1001 61.2401 91.2401 61.4001 91.5701C61.5601 91.8901 61.4201 92.2801 61.0901 92.4401C59.5601 93.1701 57.9501 93.7901 56.3201 94.2701C56.2601 94.2901 56.2001 94.3001 56.1301 94.3001ZM34.5501 93.0901C34.4701 93.0901 34.3801 93.0701 34.3001 93.0401C32.7401 92.3801 31.2101 91.5901 29.7701 90.6901C29.4601 90.5001 29.3701 90.1001 29.5601 89.7901C29.7501 89.4801 30.1501 89.3901 30.4601 89.5801C31.8501 90.4501 33.3101 91.2101 34.8101 91.8401C35.1401 91.9801 35.3001 92.3601 35.1601 92.6901C35.0501 92.9401 34.8101 93.0901 34.5601 93.0901H34.5501ZM64.3001 90.5601C64.0901 90.5601 63.8801 90.4501 63.7501 90.2601C63.5601 89.9601 63.6401 89.5501 63.9501 89.3601C65.3201 88.4801 66.6401 87.4801 67.8601 86.4001C68.1301 86.1601 68.5401 86.1801 68.7801 86.4501C69.0201 86.7201 68.9901 87.1301 68.7301 87.3701C67.4601 88.5001 66.0901 89.5401 64.6601 90.4501C64.5501 90.5201 64.4301 90.5501 64.3101 90.5501L64.3001 90.5601ZM26.8401 88.4601C26.7001 88.4601 26.5501 88.4101 26.4301 88.3101C25.1101 87.2401 23.8701 86.0501 22.7301 84.7901C22.4901 84.5201 22.5101 84.1101 22.7801 83.8701C23.0501 83.6301 23.4601 83.6501 23.7001 83.9201C24.7901 85.1301 25.9901 86.2701 27.2501 87.3001C27.5301 87.5301 27.5701 87.9401 27.3401 88.2201C27.2101 88.3801 27.0201 88.4601 26.8301 88.4601H26.8401ZM71.1101 84.7001C70.9601 84.7001 70.8001 84.6501 70.6801 84.5401C70.4101 84.3001 70.3801 83.8901 70.6201 83.6201C71.7001 82.3901 72.6901 81.0701 73.5601 79.6901C73.7501 79.3901 74.1601 79.3001 74.4601 79.4901C74.7601 79.6801 74.8501 80.0901 74.6601 80.3901C73.7501 81.8201 72.7201 83.2001 71.6001 84.4801C71.4701 84.6301 71.2901 84.7001 71.1101 84.7001ZM20.7301 81.8801C20.5201 81.8801 20.3201 81.7801 20.2001 81.6001C19.2301 80.2001 18.3601 78.7201 17.6201 77.2001C17.4601 76.8801 17.6001 76.4901 17.9201 76.3301C18.2401 76.1701 18.6301 76.3101 18.7901 76.6301C19.5001 78.1001 20.3401 79.5201 21.2701 80.8601C21.4801 81.1601 21.4001 81.5601 21.1101 81.7701C21.0001 81.8501 20.8701 81.8901 20.7401 81.8901L20.7301 81.8801ZM76.0401 77.1801C75.9501 77.1801 75.8501 77.1601 75.7601 77.1201C75.4301 76.9701 75.2901 76.5801 75.4501 76.2501C76.1401 74.7701 76.7201 73.2301 77.1801 71.6601C77.2801 71.3101 77.6501 71.1201 77.9901 71.2101C78.3401 71.3101 78.5401 71.6701 78.4401 72.0201C77.9701 73.6501 77.3601 75.2601 76.6401 76.8001C76.5301 77.0401 76.2901 77.1801 76.0501 77.1801H76.0401ZM16.6801 73.8601C16.4101 73.8601 16.1501 73.6901 16.0601 73.4201C15.5201 71.8101 15.1001 70.1501 14.8101 68.4701C14.7501 68.1201 14.9901 67.7801 15.3401 67.7201C15.6901 67.6601 16.0301 67.9001 16.0901 68.2501C16.3601 69.8601 16.7701 71.4601 17.2901 73.0001C17.4101 73.3401 17.2201 73.7101 16.8801 73.8301C16.8101 73.8501 16.7401 73.8601 16.6701 73.8601H16.6801ZM78.6701 68.5901C78.6701 68.5901 78.6001 68.5901 78.5701 68.5901C78.2101 68.5301 77.9701 68.2001 78.0301 67.8501C78.2801 66.2401 78.4101 64.6001 78.4101 62.9601C78.4101 62.0301 78.3701 61.0901 78.2901 60.1701C78.2601 59.8101 78.5201 59.5001 78.8801 59.4601C79.2401 59.4301 79.5501 59.6901 79.5901 60.0501C79.6701 61.0101 79.7201 61.9901 79.7201 62.9601C79.7201 64.6601 79.5901 66.3801 79.3301 68.0501C79.2801 68.3701 79.0001 68.6001 78.6901 68.6001L78.6701 68.5901ZM15.0301 65.0301C14.6801 65.0301 14.3901 64.7601 14.3801 64.4101C14.3601 63.9301 14.3501 63.4401 14.3501 62.9601C14.3501 61.7401 14.4201 60.5201 14.5501 59.3101C14.5901 58.9501 14.9101 58.6901 15.2701 58.7301C15.6301 58.7701 15.8901 59.0901 15.8501 59.4501C15.7201 60.6101 15.6601 61.7801 15.6601 62.9501C15.6601 63.4201 15.6701 63.8801 15.6901 64.3501C15.7101 64.7101 15.4301 65.0101 15.0701 65.0301C15.0701 65.0301 15.0501 65.0301 15.0401 65.0301H15.0301ZM78.3301 56.7901C78.0301 56.7901 77.7601 56.5801 77.6901 56.2801C77.3401 54.6901 76.8701 53.1101 76.2801 51.5801C76.1501 51.2401 76.3201 50.8701 76.6501 50.7401C76.9801 50.6101 77.3601 50.7801 77.4901 51.1101C78.1101 52.6901 78.6001 54.3401 78.9601 56.0001C79.0401 56.3501 78.8101 56.7001 78.4601 56.7701C78.4101 56.7801 78.3701 56.7801 78.3201 56.7801L78.3301 56.7901ZM15.8901 56.0801C15.8401 56.0801 15.7901 56.0801 15.7401 56.0601C15.3901 55.9801 15.1701 55.6201 15.2601 55.2701C15.6601 53.6101 16.1901 51.9801 16.8401 50.4101C16.9801 50.0801 17.3601 49.9201 17.6901 50.0601C18.0201 50.2001 18.1801 50.5801 18.0401 50.9101C17.4101 52.4201 16.9001 53.9901 16.5201 55.5701C16.4501 55.8701 16.1801 56.0701 15.8901 56.0701V56.0801ZM75.2101 48.3701C74.9801 48.3701 74.7501 48.2501 74.6401 48.0301C73.8601 46.6001 72.9701 45.2101 71.9801 43.9201C71.7601 43.6301 71.8201 43.2301 72.1001 43.0101C72.3901 42.7901 72.7901 42.8501 73.0101 43.1301C74.0401 44.4801 74.9801 45.9201 75.7901 47.4201C75.9601 47.7401 75.8401 48.1301 75.5301 48.3001C75.4301 48.3501 75.3201 48.3801 75.2201 48.3801L75.2101 48.3701ZM19.2101 47.7301C19.1001 47.7301 18.9901 47.7001 18.8901 47.6401C18.5801 47.4601 18.4701 47.0601 18.6501 46.7501C19.4901 45.2801 20.4601 43.8601 21.5201 42.5301C21.7501 42.2501 22.1601 42.2001 22.4401 42.4301C22.7201 42.6601 22.7701 43.0701 22.5401 43.3501C21.5201 44.6301 20.5901 45.9901 19.7801 47.4001C19.6601 47.6101 19.4401 47.7301 19.2101 47.7301ZM69.8601 41.1501C69.6901 41.1501 69.5201 41.0801 69.4001 40.9601C68.2501 39.8001 67.0101 38.7101 65.7001 37.7401C65.4101 37.5301 65.3501 37.1201 65.5601 36.8301C65.7701 36.5401 66.1801 36.4801 66.4701 36.6901C67.8301 37.7001 69.1301 38.8301 70.3201 40.0401C70.5701 40.3001 70.5701 40.7101 70.3201 40.9601C70.1901 41.0801 70.0301 41.1501 69.8601 41.1501ZM24.7201 40.6301C24.5501 40.6301 24.3801 40.5601 24.2501 40.4301C24.0001 40.1701 24.0101 39.7601 24.2601 39.5101C25.4801 38.3301 26.8001 37.2301 28.1901 36.2501C28.4801 36.0401 28.8901 36.1101 29.1001 36.4101C29.3101 36.7001 29.2401 37.1101 28.9401 37.3201C27.6101 38.2601 26.3401 39.3201 25.1701 40.4501C25.0401 40.5701 24.8801 40.6301 24.7201 40.6301ZM62.7201 35.6901C62.6101 35.6901 62.5001 35.6601 62.4001 35.6101C60.9801 34.8101 59.4801 34.1101 57.9501 33.5501C57.6101 33.4201 57.4401 33.0501 57.5701 32.7101C57.6901 32.3701 58.0701 32.2001 58.4101 32.3301C60.0001 32.9201 61.5601 33.6501 63.0401 34.4801C63.3501 34.6601 63.4601 35.0501 63.2901 35.3701C63.1701 35.5801 62.9501 35.7001 62.7201 35.7001V35.6901ZM31.9801 35.3401C31.7501 35.3401 31.5201 35.2201 31.4001 34.9901C31.2301 34.6701 31.3501 34.2801 31.6701 34.1101C33.1701 33.3101 34.7501 32.6201 36.3501 32.0701C36.6901 31.9501 37.0601 32.1301 37.1801 32.4701C37.3001 32.8101 37.1201 33.1801 36.7801 33.3001C35.2401 33.8301 33.7301 34.4901 32.2901 35.2601C32.1901 35.3101 32.0901 35.3401 31.9801 35.3401ZM54.3401 32.4301C54.3401 32.4301 54.2401 32.4301 54.1901 32.4101C52.6001 32.0401 50.9701 31.7901 49.3401 31.6701C48.9801 31.6401 48.7101 31.3301 48.7401 30.9701C48.7701 30.6101 49.0701 30.3401 49.4401 30.3701C51.1401 30.4901 52.8401 30.7501 54.4901 31.1401C54.8401 31.2201 55.0601 31.5701 54.9801 31.9201C54.9101 32.2201 54.6401 32.4201 54.3501 32.4201L54.3401 32.4301ZM40.4201 32.2701C40.1201 32.2701 39.8501 32.0601 39.7801 31.7501C39.7101 31.4001 39.9301 31.0501 40.2801 30.9801C41.9401 30.6301 43.6401 30.4101 45.3401 30.3301C45.7101 30.3101 46.0101 30.5901 46.0201 30.9501C46.0401 31.3101 45.7601 31.6201 45.4001 31.6301C43.7701 31.7101 42.1301 31.9201 40.5401 32.2601C40.4901 32.2601 40.4501 32.2701 40.4101 32.2701H40.4201Z" fill="#636669"/>
</svg>
